<?xml version="1.0" encoding="UTF-8"?>
<svg id="Layer_2" data-name="Layer 2" xmlns="http://www.w3.org/2000/svg" viewBox="0 0 575.42 97.2">
  <defs>
    <style>
      .cls-1 {
        fill: #fff;
        stroke-width: 0px;
      }
    </style>
  </defs>
  <g id="Layer_1-2" data-name="Layer 1">
    <path class="cls-1" d="M62.35,46.37c3.82-3.53,8.14-9.36,8.14-16.78,0-12.89-7.63-26.57-27.65-26.57H0v92.16h48.38c14.98,0,25.63-13.68,25.63-25.85,0-10.37-5.33-18.5-11.66-22.97ZM21.31,23.04h18c4.03,0,7.06,4.32,7.06,8.64,0,4.54-3.31,8.57-8.86,8.57h-16.2v-17.21ZM38.3,76.46h-16.99v-18.79h17.71c6.34,0,9.86,5.11,9.86,9.36s-3.02,9.43-10.58,9.43Z"/>
    <path class="cls-1" d="M121.9,1.22c-20.74,0-42.55,16.78-42.55,47.38,0,28.08,18.72,48.1,42.55,48.1s42.62-20.02,42.62-48.1c0-30.6-21.82-47.38-42.62-47.38ZM121.9,75.67c-12.17,0-21.24-12.67-21.24-27.79s11.88-25.34,21.24-25.34,21.31,10.66,21.31,25.34-9.14,27.79-21.31,27.79Z"/>
    <path class="cls-1" d="M219.24,39.53c-15.12-2.3-24.05-4.32-24.05-11.16,0-5.11,2.74-8.35,9.58-8.35s14.98,3.53,20.3,7.34l12.46-14.69c-8.14-7.13-24.84-12.67-30.96-12.67-21.53,0-34.99,12.89-34.99,29.59s11.81,25.27,23.62,27.07c13.18,2.02,22.54,4.82,22.54,11.45,0,5.26-5.54,8.06-11.66,8.06-9.86,0-16.99-4.82-23.04-11.16-6.34,6.34-14.18,14.69-14.18,14.69,7.56,8.93,17.42,16.78,35.42,16.78,24.34,0,37.3-17.28,37.3-29.66,0-15.48-10.66-25.56-22.32-27.29Z"/>
    <path class="cls-1" d="M291.38,22.54c7.06,0,10.44,3.82,16.49,10.66l17.5-11.95c-8.64-12.89-19.22-20.74-35.21-20.74-22.75,0-41.76,21.02-41.76,48.31s19.01,48.38,41.76,48.38c15.98,0,26.57-7.85,35.21-20.74l-17.5-11.95c-6.05,6.84-9.43,10.66-16.49,10.66-11.66,0-20.95-9.86-20.95-26.35s9.29-26.28,20.95-26.28Z"/>
    <polygon class="cls-1" points="385.2 35.21 357.34 35.21 357.34 3.02 334.73 3.02 334.73 95.18 357.34 95.18 357.34 58.46 385.2 58.46 385.2 95.18 407.74 95.18 407.74 3.02 385.2 3.02 385.2 35.21"/>
    <path class="cls-1" d="M553.9,26.42c-2.52-2.81-5.47-5.18-8.78-6.98v16.27h-33.7v-16.27c-3.31,1.8-6.26,4.18-8.71,6.91-5.69,6.34-9,14.62-9,23.26s3.31,16.99,9,23.33c2.45,2.81,5.4,5.18,8.71,6.98v-16.78h33.7v16.78c3.31-1.8,6.26-4.18,8.78-6.98,5.69-6.34,9-14.69,9-23.33s-3.31-16.92-9-23.18ZM502.7,65.45c-2.95-4.75-4.54-10.3-4.54-15.84s1.58-11.16,4.54-15.91c1.22-2.02,2.74-3.89,4.39-5.54l.14,43.06c-1.73-1.73-3.24-3.67-4.54-5.76ZM545.11,58.61h-33.7v-18.22h33.7v18.22ZM549.36,71.21l.07-43.06c1.73,1.66,3.24,3.53,4.46,5.54,2.95,4.75,4.54,10.3,4.54,15.91s-1.66,11.09-4.54,15.84c-1.3,2.09-2.81,4.03-4.54,5.76Z"/>
    <path class="cls-1" d="M553.9,10.15c-7.34-4.75-16.13-7.49-25.49-7.49s-18.29,2.81-25.7,7.63c-12.82,8.42-21.31,22.9-21.31,39.31s8.5,30.89,21.31,39.31c7.42,4.82,16.2,7.7,25.7,7.7s18.14-2.81,25.49-7.56c12.96-8.42,21.53-22.97,21.53-39.46s-8.57-31.03-21.53-39.46ZM553.9,83.3c-7.13,5.4-15.91,8.57-25.49,8.57s-18.58-3.24-25.7-8.71c-10.08-7.78-16.63-19.94-16.63-33.55s6.55-25.78,16.63-33.48c7.13-5.54,16.06-8.78,25.7-8.78s18.36,3.24,25.49,8.57c10.22,7.78,16.78,20.02,16.78,33.7s-6.55,25.92-16.78,33.7Z"/>
  </g>
</svg>