<?xml version="1.0" encoding="UTF-8"?>
<svg id="Layer_2" data-name="Layer 2" xmlns="http://www.w3.org/2000/svg" viewBox="0 0 612.34 227.94">
  <defs>
    <style>
      .cls-1 {
        fill: #fff;
        fill-rule: evenodd;
        stroke-width: 0px;
      }
    </style>
  </defs>
  <g id="Layer_1-2" data-name="Layer 1">
    <path class="cls-1" d="M217.07,92.45c3.8,5.06-.85,10.55-1.9,15.19-3.95,9.02-8.76,17.64-14.35,25.75-3.8,2.74-9.29,8.86-15.41,5.91-5.49-4.43-1.69-11.61-.42-17.1,5.06-12.45,13.29-27.85,26.8-31.44,1.9.63,4.43,0,5.28,1.69h0ZM453.44,94.98c1.9,6.75-.84,13.29-5.28,18.15-5.27,4.43-12.45,6.12-19.41,7.17h0l-3-.42h0c2.75-10.13,7-22.79,17.52-28.49,3.8-1.48,8.65,0,10.13,3.59h.04ZM221.08,91.39c-1.34-1.68-2.9-3.17-4.65-4.43-6.54-2.32-13.93.84-20.47,2.74-17.73,9.71-30.18,28.91-28.7,49,1,4.86,4.22,10.77,9.5,12.46,11.6,2.74,18.57-7.18,27-14.35h.63q-.21.42-.63.42c-.63,4.64-1.69,10.76,2.74,13.72,9.08,3.16,16.47-5.28,22.8-11,2.11-2.74,6.33-5.7,4.85-9.5-5.7,2.11-8,10.13-14.14,10.77-1.9,0-1.05-2.54-1.27-3.59,5.7-16.46,11.61-33.35,16.89-50-2.11-1.69-6.12-.63-9.08-1.05-3.58-.85-3.8,3-5.48,4.85v-.04ZM395.6,91.18l-.63,3.38-13.72,41.57h0c-.42,2.32-2.32,6.76.63,7.81,4.86-2.32,8.66-7.39,13.3-10.13,1.69-.63,1.27.85,1.69,1.06h0l-.21,1.68h0c-5.91,8.87-16.46,17.52-28.28,16.89-2.54-.85-3.17-3.38-4.22-5.28h0l.63-8,18.57-50h0c2.53-2.95,7.18-.63,11-1.05h0l1.26,2.11-.02-.04ZM305.06,90.34c1.48,3.79,2.32,8.44,0,12-2.11,1.89-3.58,3.16-6.33,3.37-2.56.38-5.07-1-6.12-3.37-.84-1.69.42-4-1.48-5.07-6.54,3.8-9.07,10.76-12.87,16.46-6.12,11-11.82,22.16-15.41,34-2.95,4.64-8,1.9-12,2.11-1.47-.63-1.68-2.74-1.05-4h0l13.72-42h0c0-2.53,2.32-5.06,0-7.38-3.17,0-4.22,3.37-6.76,5.27-2.11,2.11-2.95,5.91-6.33,6.12-1.69-.63-.63-2.11-.21-3.16,4.64-8.23,12.66-15.41,21.74-17.73,1.48.21,3.8.21,4.85,1.48,3.38,7.8-1.26,16.46-2.74,23.84,1.48-.63,2.11-3.58,3.38-5.48,5.69-7.39,10.34-18.36,20.68-19.84,2.32.63,5.91.84,7,3.38h-.07ZM369.22,93.92c-1.27-5.69-7-7-11.61-5.27-9.7,5.27-15,15-20.47,23.85.85-1.9,0-4.86,1.9-7,.42-5.27,4.22-12.87-.63-17.3-5.07-1.69-8.65.84-12.45,2.95-5.49,4.64-11.82,9.5-13.93,16.46.42,1.06,1.05,1.06,2.32.85,4-3.38,6.54-9.71,12.24-11.4.63.5.88,1.34.63,2.11-3.62,16.91-10.33,32.11-15.18,48.59h0l.42,2.11h0c2.95,1.69,7,1.06,10.13,1.48,5.28-3.38,4.64-10.13,7.39-14.78,6.75-13.08,11.18-27.22,22.37-37.77.63-.42,2.32-1.06,2.74.21.21,2.32-.42,5.27,2.53,6.75,2.11,1.06,4.44.85,7-.21,4.85-1.48,4.43-7.39,4.64-11.61l-.04-.02ZM531.94,92.66c1.27,4.64,1.48,10.34-2.32,13.72-2.82,1.58-6.26,1.58-9.08,0-2.74-1.69.21-8-4.22-6.34-11,11-16.46,26.17-23.21,39.26h0l-4,11.82h0c-3,2.11-7.81.63-11.4.63h0l-1.69-1.48h0c5.07-16.88,10.13-33.55,15.41-50-.16-.78-.61-1.46-1.27-1.9-3.16.21-4.64,3.37-7.17,5.27h0l-4.22,6.12h0c-1.06.21-2.33.64-3-.63,3.8-9.29,12.45-19,23.22-20.68,2.64.3,4.86,2.12,5.69,4.64,0,6.54-1.89,13.3-3.79,19.63.21.42.42,0,.84-.21,5.7-9.5,11.61-20.9,23.43-24.06,2.95.21,5.06,2.11,6.75,4.22h.03ZM467.94,95.82c-6.12-12.24-24.27-10.55-35.66-5.91-15.62,7.81-25.33,25.54-25.54,43.06.49,3.39,1.34,6.71,2.53,9.92,3,5.27,7.6,9.92,14.14,10.55,12.66,2.53,25.12-3.59,33.56-12.45,1.26-2.33,3.8-4.22,3-6.55h0l-1.69-.21h0c-4.33,3.75-9.16,6.88-14.35,9.29-6.12,1.9-13.5,2.53-18.36-2.53-3.8-4.22-3.16-10.13-1.69-14.78h0l20.9-3.8.82-.65h0c6.33-1.27,12.24-4.43,17.73-8.65,4.85-4.22,6.33-11.4,4.64-17.31l-.03.02ZM181.6,65.64c-4.64-7.38-14.35-7.6-21.95-7.81-25.54,2.54-51.28,13.72-65.64,35.25-8,11.18-10.55,28.49-4.22,40.94,6.55,11.61,19,17.52,31.66,16.67,11.19-1.26,22.16-4,31.45-10.34,1.69-1.69,3.59-2.74,4.22-5.27,0-1.06-1.06-1.69-2.11-2.11-8.02,5.63-17.17,9.45-26.81,11.18-7.59,1.06-16-2.11-20.68-8.65-9.28-16-.42-34.82,8.23-48.54,12.24-15,28.28-26,48.33-22.58,3.8,2.32-2.32,6.12,0,9.7,1.81,2.81,4.89,4.54,8.23,4.65,3.59-.64,6.55-1.9,8.66-4.65,1.57-2.54,1.81-5.69.63-8.44h0ZM401.93,64.38c1.69,1.9,1.9,5.48,1.06,8-.72,1.94-1.79,3.73-3.17,5.27h0c-1.82,1.57-4.13,2.47-6.54,2.54-2.53-.22-4.64-1.27-5.7-3.59-1.69-4.65,1.27-8.87,4.22-12,3.17-1.9,7-3.17,10.13-.21h0Z"/>
    <path class="cls-1" d="M306.34,0C200.6-.42,104.16,17.31,50.55,50.24,19.31,69.23,2.01,90.13.11,113.13c-1.71,22.37,17.28,45.16,50,63.1,54.66,30.18,150.05,51.71,254.94,51.71,168.63.21,307.29-49.18,307.29-111.86C612.57,53.19,474.54.64,306.34,0ZM524.56,190.58c-55.08,19.42-134.65,28.07-219.91,27.86C138.34,218.23-1.79,173.7,3.48,112.76c1.9-21.32,22.8-43.27,47.28-57.83C104.58,22.64,174.65,8.08,306.34,9.55v-.05c93.07.85,163.35,11.82,218.22,32.93,60.57,23.21,81.68,46.43,84,73.44,2.32,26.38-32.29,56.35-84,74.71Z"/>
  </g>
</svg>