<svg width="33" height="30" viewBox="0 0 33 30" fill="none" xmlns="http://www.w3.org/2000/svg">
<path d="M28.7784 14.0123C28.7784 13.7796 28.6832 13.5839 28.4928 13.4253C28.3025 13.2667 28.091 13.1979 27.8583 13.2191C27.6256 13.2402 27.43 13.3407 27.2713 13.5205C27.1127 13.7003 27.0439 13.9065 27.0651 14.1392C27.0651 14.2872 27.0704 14.4406 27.0809 14.5992C27.0915 14.7579 27.0968 14.9112 27.0968 15.0593C27.0968 16.7938 26.769 18.4225 26.1132 19.9454C25.4575 21.4684 24.5586 22.7956 23.4164 23.9273C22.2741 25.0589 20.9416 25.9526 19.4186 26.6083C17.8957 27.264 16.267 27.5919 14.5325 27.5919C12.798 27.5919 11.1693 27.264 9.64638 26.6083C8.12344 25.9526 6.79615 25.0589 5.66451 23.9273C4.53288 22.7956 3.63921 21.4684 2.98349 19.9454C2.32778 18.4225 1.99993 16.7938 1.99993 15.0593C1.99993 13.3248 2.32778 11.6961 2.98349 10.1732C3.63921 8.65023 4.53288 7.31765 5.66451 6.17544C6.79615 5.03323 8.12344 4.13427 9.64638 3.47856C11.1693 2.82284 12.798 2.49499 14.5325 2.49499C15.9074 2.49499 17.2347 2.70651 18.5144 3.12955C19.7941 3.55259 20.9839 4.17658 22.0838 5.0015C22.2741 5.14957 22.4857 5.20774 22.7183 5.17601C22.951 5.14428 23.1414 5.03323 23.2894 4.84286C23.4375 4.65249 23.4904 4.43569 23.4481 4.19244C23.4058 3.94919 23.2894 3.76411 23.0991 3.6372C21.8723 2.68536 20.5291 1.97148 19.0696 1.49556C17.6101 1.01964 16.0978 0.781673 14.5325 0.781673C12.5654 0.781673 10.7146 1.15184 8.98009 1.89216C7.24563 2.63248 5.73326 3.65306 4.44298 4.95391C3.15271 6.25476 2.12684 7.77242 1.36536 9.50689C0.625043 11.2414 0.254883 13.0922 0.254883 15.0593C0.254883 17.0264 0.625043 18.8772 1.36536 20.6117C2.12684 22.3462 3.15271 23.8585 4.44298 25.1488C5.73326 26.4391 7.24563 27.465 8.98009 28.2264C10.7146 28.9668 12.5654 29.3369 14.5325 29.3369C16.4996 29.3369 18.3504 28.9668 20.0849 28.2264C21.8194 27.465 23.337 26.4391 24.6379 25.1488C25.9387 23.8585 26.9593 22.3462 27.6996 20.6117C28.4611 18.8772 28.8419 17.0264 28.8419 15.0593C28.8419 14.8901 28.8366 14.7156 28.826 14.5358C28.8154 14.356 28.7995 14.1815 28.7784 14.0123ZM31.7608 2.71708C31.1051 2.06137 30.3066 1.73351 29.3654 1.73351C28.4241 1.73351 27.6256 2.06137 26.9699 2.71708L14.469 15.2497L10.0271 10.8077C9.37141 10.152 8.57292 9.82417 7.63165 9.82417C6.69039 9.82417 5.8919 10.152 5.23619 10.8077C4.58047 11.4634 4.25262 12.2619 4.25262 13.2032C4.25262 14.1445 4.58047 14.943 5.23619 15.5987L12.8826 23.2134C13.0942 23.4461 13.3374 23.6153 13.6124 23.7211C13.8874 23.8268 14.1729 23.8797 14.469 23.8797C14.744 23.8797 15.019 23.8268 15.294 23.7211C15.569 23.6153 15.8228 23.4461 16.0554 23.2134L31.7608 7.50802C32.4165 6.85231 32.7444 6.05911 32.7444 5.12842C32.7444 4.19773 32.4165 3.39395 31.7608 2.71708ZM30.5234 6.30235L14.8181 22.0077C14.7123 22.0923 14.5907 22.1346 14.4532 22.1346C14.3157 22.1346 14.1941 22.0923 14.0883 22.0077L6.47358 14.3613C6.13515 14.044 5.96593 13.658 5.96593 13.2032C5.96593 12.7484 6.13515 12.3624 6.47358 12.0451C6.62164 11.8759 6.79615 11.749 6.99709 11.6644C7.19804 11.5798 7.40427 11.5375 7.61579 11.5375C7.82731 11.5375 8.03883 11.5798 8.25035 11.6644C8.46187 11.749 8.64166 11.8759 8.78973 12.0451L13.3586 16.5822C13.5066 16.7303 13.6758 16.8466 13.8662 16.9312C14.0566 17.0159 14.2575 17.0582 14.469 17.0582C14.6594 17.0582 14.8498 17.0159 15.0402 16.9312C15.2305 16.8466 15.3997 16.7303 15.5478 16.5822L28.2073 3.95448C28.5246 3.6372 28.9106 3.47856 29.3654 3.47856C29.8201 3.47856 30.2062 3.6372 30.5234 3.95448C30.8407 4.27176 30.9994 4.65778 30.9994 5.11255C30.9994 5.56732 30.8407 5.96392 30.5234 6.30235Z" fill="white"/>
</svg>
