<svg width="41" height="41" viewBox="0 0 41 41" fill="none" xmlns="http://www.w3.org/2000/svg">
<path d="M33.2637 31.833C33.0553 31.833 32.873 31.9111 32.7168 32.0674C32.5605 32.2236 32.4824 32.4189 32.4824 32.6533V38.4346C32.4824 38.6429 32.4043 38.8252 32.248 38.9814C32.0918 39.1377 31.8965 39.2158 31.6621 39.2158H3.26367C3.05534 39.2158 2.87305 39.1442 2.7168 39.001C2.56055 38.8577 2.48242 38.6689 2.48242 38.4346V3.12207C2.48242 2.91374 2.55404 2.73145 2.69727 2.5752C2.84049 2.41895 3.0293 2.34082 3.26367 2.34082H31.7402C31.9486 2.34082 32.1374 2.41243 32.3066 2.55566C32.4759 2.69889 32.5605 2.8877 32.5605 3.12207V11.5986C32.5605 11.807 32.6322 11.9958 32.7754 12.165C32.9186 12.3343 33.1074 12.4189 33.3418 12.4189C33.5762 12.4189 33.765 12.3408 33.9082 12.1846C34.0514 12.0283 34.123 11.833 34.123 11.5986V3.12207C34.123 2.49707 33.8952 1.94368 33.4395 1.46191C32.9837 0.980143 32.4173 0.739258 31.7402 0.739258H3.26367C2.58659 0.739258 2.02018 0.967122 1.56445 1.42285C1.10872 1.87858 0.880859 2.44499 0.880859 3.12207V38.4346C0.880859 39.0596 1.10872 39.613 1.56445 40.0947C2.02018 40.5765 2.58659 40.8174 3.26367 40.8174H31.7402C32.3913 40.8174 32.9512 40.5895 33.4199 40.1338C33.8887 39.6781 34.123 39.1117 34.123 38.4346V32.6533C34.097 32.445 33.9993 32.2562 33.8301 32.0869C33.6608 31.9176 33.472 31.833 33.2637 31.833ZM24.5918 12.1846C24.5918 10.1794 23.8887 8.47363 22.4824 7.06738C21.0762 5.66113 19.3835 4.95801 17.4043 4.95801C15.3991 4.95801 13.6934 5.66113 12.2871 7.06738C10.8809 8.47363 10.1777 10.1794 10.1777 12.1846C10.1777 13.2002 10.3796 14.1572 10.7832 15.0557C11.1868 15.9541 11.7272 16.7419 12.4043 17.4189C12.4043 17.4189 12.4173 17.432 12.4434 17.458C12.4694 17.484 12.4824 17.4971 12.4824 17.4971C13.1074 18.096 13.8431 18.5583 14.6895 18.8838C15.5358 19.2093 16.4147 19.3721 17.3262 19.3721C18.2376 19.3721 19.11 19.2093 19.9434 18.8838C20.7767 18.5583 21.5189 18.096 22.1699 17.4971C22.1699 17.4971 22.1829 17.484 22.209 17.458C22.235 17.432 22.248 17.4189 22.248 17.4189C22.9772 16.7419 23.5501 15.9541 23.9668 15.0557C24.3835 14.1572 24.5918 13.2002 24.5918 12.1846ZM17.4824 6.52051C19.0189 6.52051 20.3405 7.07389 21.4473 8.18066C22.554 9.28743 23.1074 10.6221 23.1074 12.1846C23.1074 12.8096 23.0098 13.402 22.8145 13.9619C22.6191 14.5218 22.3392 15.0361 21.9746 15.5049C21.7142 15.0622 21.3887 14.6846 20.998 14.3721C20.6074 14.0596 20.1777 13.7992 19.709 13.5908C19.8913 13.3564 20.028 13.0895 20.1191 12.79C20.2103 12.4906 20.2559 12.1715 20.2559 11.833V11.3643C20.2559 10.583 19.9824 9.92546 19.4355 9.3916C18.8887 8.85775 18.2376 8.59082 17.4824 8.59082C16.7272 8.59082 16.0762 8.86426 15.5293 9.41113C14.9824 9.95801 14.709 10.609 14.709 11.3643V11.833C14.709 12.1715 14.7611 12.4906 14.8652 12.79C14.9694 13.0895 15.0996 13.3564 15.2559 13.5908C14.7611 13.7992 14.3184 14.0726 13.9277 14.4111C13.5371 14.7497 13.2116 15.1143 12.9512 15.5049C12.5866 15.0361 12.3066 14.5218 12.1113 13.9619C11.916 13.402 11.8184 12.8096 11.8184 12.1846C11.8184 10.6221 12.3717 9.28743 13.4785 8.18066C14.5853 7.07389 15.9199 6.52051 17.4824 6.52051ZM16.1934 11.833V11.3643C16.1934 11.0257 16.3171 10.7327 16.5645 10.4854C16.8118 10.238 17.1178 10.1143 17.4824 10.1143C17.821 10.1143 18.1139 10.238 18.3613 10.4854C18.6087 10.7327 18.7324 11.0257 18.7324 11.3643V11.833C18.7324 12.1976 18.6087 12.5036 18.3613 12.751C18.1139 12.9984 17.821 13.1221 17.4824 13.1221C17.1178 13.1221 16.8118 12.9984 16.5645 12.751C16.3171 12.5036 16.1934 12.1976 16.1934 11.833ZM14.0449 16.5986C14.4095 15.9997 14.8913 15.5244 15.4902 15.1729C16.0892 14.8213 16.7533 14.6455 17.4824 14.6455C18.1855 14.6455 18.8366 14.8213 19.4355 15.1729C20.0345 15.5244 20.5163 15.9997 20.8809 16.5986C20.4121 16.9632 19.8848 17.2432 19.2988 17.4385C18.7129 17.6338 18.1074 17.7314 17.4824 17.7314C16.8314 17.7314 16.2194 17.6338 15.6465 17.4385C15.0736 17.2432 14.5397 16.9632 14.0449 16.5986ZM21.6621 34.958H17.4824C17.2741 34.958 17.0853 35.0296 16.916 35.1729C16.7467 35.3161 16.6621 35.5049 16.6621 35.7393C16.6621 35.9736 16.7337 36.1624 16.877 36.3057C17.0202 36.4489 17.222 36.5205 17.4824 36.5205H21.6621C21.8704 36.5205 22.0592 36.4489 22.2285 36.3057C22.3978 36.1624 22.4824 35.9736 22.4824 35.7393C22.4824 35.5049 22.3978 35.3161 22.2285 35.1729C22.0592 35.0296 21.8704 34.958 21.6621 34.958ZM21.6621 30.583H10.5684C10.36 30.583 10.1777 30.6546 10.0215 30.7979C9.86523 30.9411 9.78711 31.1299 9.78711 31.3643C9.78711 31.5726 9.85872 31.7614 10.002 31.9307C10.1452 32.0999 10.334 32.1846 10.5684 32.1846H21.6621C21.8704 32.1846 22.0592 32.1064 22.2285 31.9502C22.3978 31.7939 22.4824 31.5986 22.4824 31.3643C22.4824 31.182 22.3978 31.0062 22.2285 30.8369C22.0592 30.6676 21.8704 30.583 21.6621 30.583ZM21.6621 26.208H10.5684C10.36 26.208 10.1777 26.2796 10.0215 26.4229C9.86523 26.5661 9.78711 26.7679 9.78711 27.0283C9.78711 27.2627 9.85872 27.4515 10.002 27.5947C10.1452 27.738 10.334 27.8096 10.5684 27.8096H21.6621C21.8704 27.8096 22.0592 27.738 22.2285 27.5947C22.3978 27.4515 22.4824 27.2627 22.4824 27.0283C22.4824 26.7679 22.3978 26.5661 22.2285 26.4229C22.0592 26.2796 21.8704 26.208 21.6621 26.208ZM7.79492 22.1064C7.7168 22.0023 7.63216 21.9307 7.54102 21.8916C7.44987 21.8525 7.35221 21.833 7.24805 21.833C7.11784 21.833 7.00716 21.8525 6.91602 21.8916C6.82487 21.9307 6.74023 22.0023 6.66211 22.1064C6.58398 22.1846 6.52539 22.2627 6.48633 22.3408C6.44727 22.4189 6.42773 22.5231 6.42773 22.6533C6.42773 22.7575 6.44727 22.8551 6.48633 22.9463C6.52539 23.0374 6.58398 23.1221 6.66211 23.2002C6.74023 23.2783 6.82487 23.3369 6.91602 23.376C7.00716 23.415 7.11784 23.4346 7.24805 23.4346C7.35221 23.4346 7.44987 23.415 7.54102 23.376C7.63216 23.3369 7.7168 23.2783 7.79492 23.2002C7.87305 23.1221 7.93164 23.0309 7.9707 22.9268C8.00977 22.8226 8.0293 22.7314 8.0293 22.6533C8.0293 22.5231 8.00977 22.4189 7.9707 22.3408C7.93164 22.2627 7.87305 22.1846 7.79492 22.1064ZM7.79492 26.4424C7.7168 26.3643 7.63216 26.3057 7.54102 26.2666C7.44987 26.2275 7.35221 26.208 7.24805 26.208C7.11784 26.208 7.00716 26.2275 6.91602 26.2666C6.82487 26.3057 6.74023 26.3643 6.66211 26.4424C6.58398 26.5205 6.52539 26.6051 6.48633 26.6963C6.44727 26.7874 6.42773 26.8981 6.42773 27.0283C6.42773 27.1325 6.44727 27.2301 6.48633 27.3213C6.52539 27.4124 6.58398 27.4971 6.66211 27.5752C6.74023 27.6533 6.82487 27.7119 6.91602 27.751C7.00716 27.79 7.11784 27.8096 7.24805 27.8096C7.35221 27.8096 7.44987 27.79 7.54102 27.751C7.63216 27.7119 7.7168 27.6533 7.79492 27.5752C7.87305 27.4971 7.93164 27.4124 7.9707 27.3213C8.00977 27.2301 8.0293 27.1325 8.0293 27.0283C8.0293 26.8981 8.00977 26.7874 7.9707 26.6963C7.93164 26.6051 7.87305 26.5205 7.79492 26.4424ZM7.24805 30.583C7.11784 30.583 7.00716 30.6025 6.91602 30.6416C6.82487 30.6807 6.74023 30.7393 6.66211 30.8174C6.58398 30.8955 6.52539 30.9867 6.48633 31.0908C6.44727 31.195 6.42773 31.2861 6.42773 31.3643C6.42773 31.4945 6.44727 31.5986 6.48633 31.6768C6.52539 31.7549 6.58398 31.833 6.66211 31.9111C6.74023 32.0153 6.82487 32.0869 6.91602 32.126C7.00716 32.165 7.11784 32.1846 7.24805 32.1846C7.35221 32.1846 7.44987 32.165 7.54102 32.126C7.63216 32.0869 7.7168 32.0153 7.79492 31.9111C7.87305 31.833 7.93164 31.7549 7.9707 31.6768C8.00977 31.5986 8.0293 31.4945 8.0293 31.3643C8.0293 31.2601 8.00977 31.1624 7.9707 31.0713C7.93164 30.9801 7.87305 30.8955 7.79492 30.8174C7.7168 30.7393 7.63216 30.6807 7.54102 30.6416C7.44987 30.6025 7.35221 30.583 7.24805 30.583ZM21.6621 21.833H10.5684C10.36 21.833 10.1777 21.9111 10.0215 22.0674C9.86523 22.2236 9.78711 22.4189 9.78711 22.6533C9.78711 22.8356 9.85872 23.0114 10.002 23.1807C10.1452 23.3499 10.334 23.4346 10.5684 23.4346H21.6621C21.8704 23.4346 22.0592 23.363 22.2285 23.2197C22.3978 23.0765 22.4824 22.8877 22.4824 22.6533C22.4824 22.4189 22.3978 22.2236 22.2285 22.0674C22.0592 21.9111 21.8704 21.833 21.6621 21.833ZM39.2793 10.8955C38.8887 10.6611 38.485 10.5179 38.0684 10.4658C37.6517 10.4137 37.235 10.4528 36.8184 10.583C36.4017 10.7132 36.0176 10.9085 35.666 11.1689C35.3145 11.4294 35.0475 11.7419 34.8652 12.1064L24.9434 29.1377C24.8913 29.1898 24.8652 29.2354 24.8652 29.2744C24.8652 29.3135 24.8652 29.3721 24.8652 29.4502L24.123 35.6611C24.123 35.8174 24.1491 35.9671 24.2012 36.1104C24.2533 36.2536 24.3574 36.3643 24.5137 36.4424C24.6178 36.4945 24.696 36.5205 24.748 36.5205C24.8001 36.5205 24.8652 36.5205 24.9434 36.5205C25.0215 36.5205 25.0996 36.5075 25.1777 36.4814C25.2559 36.4554 25.334 36.4163 25.4121 36.3643L30.4121 32.6533C30.4382 32.6012 30.4707 32.5557 30.5098 32.5166C30.5488 32.4775 30.5944 32.445 30.6465 32.4189L40.4902 15.3486C40.9329 14.5934 41.0306 13.7796 40.7832 12.9072C40.5358 12.0348 40.0345 11.3643 39.2793 10.8955ZM26.2715 30.8174L28.5762 32.1064L25.8809 34.0596L26.2715 30.8174ZM29.709 30.9736L26.6621 29.2939L34.5137 15.6611L37.5605 17.4189L29.709 30.9736ZM39.123 14.6455L38.3418 15.9736L35.334 14.2158L36.1152 12.8877C36.2454 12.6794 36.4017 12.5036 36.584 12.3604C36.7663 12.2171 36.9616 12.1325 37.1699 12.1064C37.4043 12.0544 37.6191 12.0348 37.8145 12.0479C38.0098 12.0609 38.2116 12.1325 38.4199 12.2627C38.6283 12.3669 38.804 12.5101 38.9473 12.6924C39.0905 12.8747 39.1751 13.07 39.2012 13.2783C39.2793 13.5127 39.3184 13.7471 39.3184 13.9814C39.3184 14.2158 39.2533 14.4372 39.123 14.6455Z" fill="#04CF9C"/>
</svg>
