<?xml version="1.0" encoding="UTF-8"?>
<svg id="Layer_2" data-name="Layer 2" xmlns="http://www.w3.org/2000/svg" viewBox="0 0 187.09 113.19">
  <defs>
    <style>
      .cls-1 {
        fill: #fff;
        fill-rule: evenodd;
        stroke-width: 0px;
      }
    </style>
  </defs>
  <g id="Layer_1-2" data-name="Layer 1">
    <path class="cls-1" d="M56.63,0C25.32,0,0,25.39,0,56.63s25.32,56.56,56.63,56.56,56.56-25.32,56.56-56.56S87.87,0,56.63,0h0ZM35.81,29.1c3.71,0,6.78,3.07,6.78,6.78s-3.07,6.85-6.78,6.85-6.85-3.07-6.85-6.85,3.07-6.78,6.85-6.78h0ZM62.48,83.88h-7.99V30.53h5.28v48h10.7v5.35h-7.99ZM62.48,100.78c20.04-2.64,35.88-18.69,38.3-38.8h-30.31v-5.56h35.16c0,25.04-18.83,45.93-43.15,48.93-1.93.21-3.92.29-5.85.29-7.49,0-14.55-1.64-20.83-4.56-16.69-7.85-28.32-24.82-28.32-44.44S19.12,20.04,35.81,12.2c5.99-2.78,12.7-4.42,19.76-4.64v4.56c-7.13.14-13.84,2-19.76,5.14-14.12,7.49-23.75,22.32-23.75,39.37s9.63,31.88,23.75,39.37c6.21,3.28,13.27,5.14,20.83,5.14,1.93,0,3.92-.14,5.85-.36h0Z"/>
    <path class="cls-1" d="M116.97,77.82v-38.8h12.77v29.74h17.47v9.06h-30.24ZM187.09,77.96h-8.27l-.43-3.85c-2.14,2.5-5.63,4.78-11.77,4.78-9.91,0-18.83-6.42-18.83-19.97,0-12.41,7.77-20.9,20.4-20.9,9.34,0,16.83,4.85,18.4,14.41h-12.13c-.93-3.21-3.21-4.92-6.56-4.92-4.99,0-7.35,4.56-7.35,11.34,0,5.49,1.71,10.56,8.13,10.56,2.57,0,5.92-1.78,6.56-4.49h-5.63v-8.34h17.47v21.4h0Z"/>
  </g>
</svg>