<svg width="35" height="34" viewBox="0 0 35 34" fill="none" xmlns="http://www.w3.org/2000/svg">
<path d="M12.777 4.57545H33.6661C33.8165 4.57545 33.9347 4.53784 34.0207 4.46263C34.1066 4.38741 34.1496 4.27458 34.1496 4.12415C34.1496 3.9952 34.1066 3.88775 34.0207 3.80178C33.9347 3.71582 33.8165 3.67284 33.6661 3.67284H12.777C12.6266 3.67284 12.5137 3.71582 12.4385 3.80178C12.3633 3.88775 12.3257 3.9952 12.3257 4.12415C12.3257 4.27458 12.3794 4.38741 12.4869 4.46263C12.5943 4.53784 12.691 4.57545 12.777 4.57545ZM4.87913 0.0946198C4.75019 0.0946198 4.64274 0.1376 4.55677 0.223564C4.47081 0.309528 4.42783 0.416981 4.42783 0.545925C4.42783 0.696362 4.47081 0.809189 4.55677 0.884407C4.64274 0.959625 4.75019 0.997234 4.87913 0.997234C5.76026 0.997234 6.50169 1.30348 7.10343 1.91597C7.70518 2.52845 8.00605 3.26451 8.00605 4.12415C8.00605 5.00527 7.70518 5.7467 7.10343 6.34844C6.50169 6.95019 5.76026 7.25106 4.87913 7.25106C4.0195 7.25106 3.28344 6.95019 2.67095 6.34844C2.05847 5.7467 1.75222 5.00527 1.75222 4.12415C1.75222 3.9952 1.71461 3.88775 1.6394 3.80178C1.56418 3.71582 1.45135 3.67284 1.30092 3.67284C1.17197 3.67284 1.06452 3.71582 0.978554 3.80178C0.892591 3.88775 0.849609 3.9952 0.849609 4.12415C0.849609 5.22018 1.24719 6.16577 2.04235 6.96093C2.83751 7.75609 3.7831 8.15367 4.87913 8.15367C5.97517 8.15367 6.92076 7.75609 7.71592 6.96093C8.51108 6.16577 8.90866 5.22018 8.90866 4.12415C8.90866 3.02811 8.51108 2.08252 7.71592 1.28736C6.92076 0.492199 5.97517 0.0946198 4.87913 0.0946198ZM33.6661 16.1482H12.777C12.6266 16.1482 12.5137 16.1912 12.4385 16.2772C12.3633 16.3632 12.3257 16.4706 12.3257 16.5996C12.3257 16.7285 12.3633 16.836 12.4385 16.9219C12.5137 17.0079 12.6266 17.0509 12.777 17.0509H33.6661C33.8165 17.0509 33.9347 17.0079 34.0207 16.9219C34.1066 16.836 34.1496 16.7285 34.1496 16.5996C34.1496 16.4706 34.1066 16.3632 34.0207 16.2772C33.9347 16.1912 33.8165 16.1482 33.6661 16.1482ZM8.45735 16.1482C8.32841 16.1482 8.22095 16.1912 8.13499 16.2772C8.04903 16.3632 8.00605 16.4706 8.00605 16.5996C8.00605 17.4807 7.70518 18.2221 7.10343 18.8239C6.50169 19.4256 5.76026 19.7265 4.87913 19.7265C4.0195 19.7265 3.28344 19.4256 2.67095 18.8239C2.05847 18.2221 1.75222 17.4807 1.75222 16.5996C1.75222 15.7184 2.05847 14.977 2.67095 14.3753C3.28344 13.7735 4.0195 13.4726 4.87913 13.4726C5.02957 13.4726 5.1424 13.4297 5.21762 13.3437C5.29283 13.2577 5.33044 13.1503 5.33044 13.0213C5.33044 12.8924 5.29283 12.7849 5.21762 12.699C5.1424 12.613 5.02957 12.57 4.87913 12.57C3.7831 12.57 2.83751 12.9676 2.04235 13.7628C1.24719 14.5579 0.849609 15.5035 0.849609 16.5996C0.849609 17.6956 1.24719 18.6412 2.04235 19.4363C2.83751 20.2315 3.7831 20.6291 4.87913 20.6291C5.97517 20.6291 6.92076 20.2315 7.71592 19.4363C8.51108 18.6412 8.90866 17.6956 8.90866 16.5996C8.90866 16.4706 8.86568 16.3632 8.77972 16.2772C8.69375 16.1912 8.5863 16.1482 8.45735 16.1482ZM33.6661 28.6237H12.777C12.6266 28.6237 12.5137 28.6613 12.4385 28.7365C12.3633 28.8117 12.3257 28.9245 12.3257 29.075C12.3257 29.2039 12.3633 29.3114 12.4385 29.3973C12.5137 29.4833 12.6266 29.5263 12.777 29.5263H33.6661C33.8165 29.5263 33.9347 29.4833 34.0207 29.3973C34.1066 29.3114 34.1496 29.2039 34.1496 29.075C34.1496 28.9245 34.1066 28.8117 34.0207 28.7365C33.9347 28.6613 33.8165 28.6237 33.6661 28.6237ZM4.87913 25.0454C3.7831 25.0454 2.83751 25.443 2.04235 26.2382C1.24719 27.0333 0.849609 27.9789 0.849609 29.075C0.849609 30.171 1.24719 31.1166 2.04235 31.9118C2.83751 32.7069 3.7831 33.1045 4.87913 33.1045C5.97517 33.1045 6.92076 32.7069 7.71592 31.9118C8.51108 31.1166 8.90866 30.171 8.90866 29.075C8.90866 27.9789 8.51108 27.0333 7.71592 26.2382C6.92076 25.443 5.97517 25.0454 4.87913 25.0454ZM4.87913 32.2019C4.0195 32.2019 3.28344 31.8956 2.67095 31.2831C2.05847 30.6707 1.75222 29.9346 1.75222 29.075C1.75222 28.1938 2.05847 27.4524 2.67095 26.8507C3.28344 26.2489 4.0195 25.9481 4.87913 25.9481C5.76026 25.9481 6.50169 26.2489 7.10343 26.8507C7.70518 27.4524 8.00605 28.1938 8.00605 29.075C8.00605 29.9346 7.70518 30.6707 7.10343 31.2831C6.50169 31.8956 5.76026 32.2019 4.87913 32.2019Z" fill="white"/>
</svg>
