<?xml version="1.0" encoding="UTF-8"?>
<svg id="Layer_2" data-name="Layer 2" xmlns="http://www.w3.org/2000/svg" viewBox="0 0 200.78 66.66">
  <defs>
    <style>
      .cls-1 {
        fill: #fff;
        stroke-width: 0px;
      }
    </style>
  </defs>
  <g id="Layer_1-2" data-name="Layer 1">
    <path class="cls-1" d="M200.65,15.87C197.92.19,150.82-4.7,95.45,4.94c-23.26,4.05-44.25,10.03-60.61,16.75,2.51.06,4.37.63,5.51,1.76.88.89,1.33,2.1,1.33,3.62v1.55h-5.43v-1.37c0-1.14-.69-1.85-1.9-1.85-1.02,0-1.65.46-1.85,1.37-.06.25-.07.69.02,1.08.58,2.38,8.64,3.85,9.52,8.23.11.56.27,1.77.03,3.5-.5,3.53-3.61,4.9-7.56,4.9-5.52,0-7.76-2.61-7.76-6.22v-1.7h5.83v2.12c0,1.19.87,1.85,2.05,1.85,1.12,0,1.77-.45,2-1.37.11-.42.15-1.05-.04-1.53-1.08-2.7-8.61-3.97-9.53-8.33-.21-.98-.22-1.82-.05-2.87.09-.57.27-1.06.48-1.51C9.33,33.4-1.28,42.73.12,50.79c2.73,15.68,49.83,20.57,105.21,10.92,24.34-4.24,46.22-10.58,62.88-17.69-.24.01-.47.04-.72.04-3.79,0-7.17-1.42-7.53-5.29-.06-.71-.07-1-.08-1.4v-8.9c0-.38.05-1.06.09-1.41.45-3.74,3.41-5.29,7.51-5.29,3.17,0,7.07.91,7.5,5.29.06.55.05,1.14.05,1.33h0v.84h-5.49v-1.25h0s0-.5-.07-.79c-.09-.45-.47-1.48-2.03-1.48s-1.94,1.04-2.04,1.48c-.06.25-.08.6-.08.99v9.68c0,.34.01.6.05.79.03.15.3,1.49,2.1,1.49s2.06-1.33,2.08-1.49c.05-.26.05-.57.05-.79v-3h-2.16v-3.23h7.63v5.74c0,.39,0,.68-.07,1.4-.09,1.02-.41,1.88-.91,2.61,17.67-8.39,27.95-17.57,26.57-25.51ZM57.07,43.65l-2.78-18.88h-.1l-2.85,18.88h-5.86l3.94-21.32h9.55l3.91,21.32h-5.82ZM85.23,43.65l-.13-18.51h-.09l-3.45,18.51h-5.49l-3.43-18.51h-.1l-.12,18.51h-5.45l.47-21.32h8.76l2.55,15.84h.12l2.56-15.84h8.75l.47,21.32h-5.43ZM110.87,39.52c-.59,4.13-4.63,4.85-7.49,4.85-4.75,0-7.68-2.03-7.68-6.16v-1.68h5.75v2.1c0,1.14.81,1.84,2.05,1.84,1.11,0,1.75-.44,1.98-1.36.1-.43.15-1.05-.04-1.51-1.06-2.65-8.53-3.95-9.44-8.25-.21-.98-.22-1.8-.05-2.85.63-3.9,4.37-4.71,7.39-4.71,2.69,0,4.65.59,5.83,1.76.88.88,1.32,2.08,1.32,3.58v1.54h-5.38v-1.36c0-1.16-.72-1.83-1.88-1.83-1.03,0-1.65.46-1.85,1.36-.04.19-.08.63.03,1.07.58,2.36,8.57,3.81,9.44,8.15.11.56.27,1.75.02,3.46ZM130.79,37.59c0,.4-.03,1.2-.05,1.4-.33,3.51-2.84,5.3-7.45,5.3s-7.14-1.79-7.46-5.3c-.02-.2-.06-1-.05-1.4v-15.26h5.5v15.74c0,.35.01.61.05.79.07.35.42,1.49,1.97,1.49s1.9-1.14,1.97-1.48c.03-.18.05-.46.05-.8v-15.74h5.48s0,15.26,0,15.25ZM154.49,43.44h-7.66l-5.14-16.89h-.09l.29,16.89h-5.34v-21.1h7.98l4.75,16.22h.11l-.28-16.22h5.37v21.1Z"/>
  </g>
</svg>