<svg width="40" height="40" viewBox="0 0 40 40" fill="none" xmlns="http://www.w3.org/2000/svg">
<path d="M12.8653 22.9686L3.95119 31.8449C3.85047 31.9708 3.80011 32.1093 3.80011 32.2604C3.80011 32.4114 3.85047 32.5373 3.95119 32.6381C4.02673 32.7136 4.09598 32.764 4.15893 32.7892C4.22189 32.8143 4.29113 32.8269 4.36668 32.8269C4.44222 32.8269 4.51147 32.8143 4.57442 32.7892C4.63737 32.764 4.70662 32.7136 4.78216 32.6381L13.6585 23.7618C13.7592 23.661 13.8095 23.5288 13.8095 23.3652C13.8095 23.2015 13.7592 23.0693 13.6585 22.9686C13.5326 22.8678 13.3941 22.8175 13.243 22.8175C13.0919 22.8175 12.966 22.8678 12.8653 22.9686ZM14.3761 24.5172L5.49982 33.3935C5.3991 33.4942 5.34874 33.6264 5.34874 33.7901C5.34874 33.9538 5.3991 34.086 5.49982 34.1867C5.55018 34.2371 5.61314 34.2748 5.68868 34.3C5.76422 34.3252 5.83977 34.3378 5.91531 34.3378C5.96567 34.3378 6.02862 34.3252 6.10417 34.3C6.17971 34.2748 6.24266 34.2371 6.29302 34.1867L15.1693 25.3104C15.2952 25.1845 15.3582 25.046 15.3582 24.8949C15.3582 24.7438 15.2952 24.6179 15.1693 24.5172C15.0686 24.3913 14.9427 24.3283 14.7916 24.3283C14.6405 24.3283 14.502 24.3913 14.3761 24.5172ZM7.04845 35.7353C7.09881 35.7857 7.15547 35.8235 7.21842 35.8486C7.28138 35.8738 7.35062 35.8864 7.42617 35.8864C7.50171 35.8864 7.57725 35.8738 7.6528 35.8486C7.72834 35.8235 7.79129 35.7857 7.84165 35.7353L16.718 26.8213C16.8187 26.7205 16.869 26.5946 16.869 26.4435C16.869 26.2925 16.8187 26.154 16.718 26.0281C16.6172 25.9273 16.485 25.877 16.3214 25.877C16.1577 25.877 16.0255 25.9273 15.9248 26.0281L7.04845 34.9044C6.92255 35.0303 6.8596 35.1688 6.8596 35.3198C6.8596 35.4709 6.92255 35.6094 7.04845 35.7353ZM38.8143 2.34534L37.3412 0.872253C37.1146 0.645626 36.8439 0.513424 36.5291 0.475655C36.2143 0.437881 35.9185 0.494541 35.6415 0.645626L31.26 3.36517C31.1089 3.4659 30.9893 3.57921 30.9011 3.70512C30.813 3.83102 30.7438 3.95692 30.6934 4.08283L29.6358 7.06678L19.513 17.1895L18.3421 16.0186C17.9644 15.6409 17.5174 15.452 17.0012 15.452C16.485 15.452 16.0381 15.6409 15.6604 16.0186C15.4085 16.2704 15.2449 16.5789 15.1693 16.944C15.0938 17.3091 15.119 17.668 15.2449 18.0205L15.4715 18.6249C15.547 18.8011 15.5659 18.99 15.5282 19.1914C15.4904 19.3929 15.396 19.5691 15.2449 19.7202C15.119 19.8461 14.9805 19.9343 14.8294 19.9846C14.6783 20.035 14.5146 20.0476 14.3383 20.0224L13.5829 19.9091C13.2807 19.8587 12.9912 19.8839 12.7142 19.9846C12.4372 20.0853 12.198 20.2364 11.9965 20.4379L7.99274 24.4417C7.86683 24.5676 7.80388 24.7061 7.80388 24.8571C7.80388 25.0082 7.86683 25.1341 7.99274 25.2349C8.09346 25.3608 8.21937 25.4237 8.37045 25.4237C8.52154 25.4237 8.66004 25.3608 8.78594 25.2349L12.7897 21.2311C12.8653 21.1555 12.9597 21.0989 13.073 21.0611C13.1863 21.0233 13.3059 21.017 13.4318 21.0422L14.1873 21.1555C14.5146 21.2059 14.842 21.1744 15.1693 21.0611C15.4967 20.9478 15.7863 20.7652 16.0381 20.5134C16.3402 20.2113 16.5354 19.8524 16.6235 19.4369C16.7117 19.0215 16.6802 18.6123 16.5291 18.2094L16.3025 17.605C16.2521 17.4791 16.2395 17.3406 16.2647 17.1895C16.2899 17.0384 16.3654 16.9125 16.4913 16.8118C16.5417 16.7363 16.6172 16.6796 16.718 16.6418C16.8187 16.6041 16.9194 16.5852 17.0201 16.5852C17.1208 16.5852 17.2153 16.6041 17.3034 16.6418C17.3915 16.6796 17.4734 16.7363 17.5489 16.8118L22.8747 22.1376C23.0258 22.2887 23.1013 22.4712 23.1013 22.6853C23.1013 22.8993 23.0258 23.0693 22.8747 23.1952C22.774 23.3211 22.6481 23.3966 22.497 23.4218C22.3459 23.447 22.2074 23.4344 22.0815 23.3841L21.4772 23.1574C21.0743 23.0063 20.6651 22.9749 20.2496 23.063C19.8341 23.1511 19.4753 23.3463 19.1731 23.6485C18.9213 23.9003 18.7387 24.1898 18.6254 24.5172C18.5121 24.8446 18.4806 25.1719 18.531 25.4993L18.6443 26.2547C18.6695 26.3806 18.6632 26.5002 18.6254 26.6135C18.5876 26.7268 18.531 26.8213 18.4554 26.8968L7.99274 37.3595C7.76611 37.561 7.5206 37.7183 7.2562 37.8316C6.9918 37.945 6.7211 38.0016 6.44411 38.0016C6.14194 38.0016 5.85865 37.945 5.59425 37.8316C5.32985 37.7183 5.09693 37.561 4.89548 37.3595L2.32702 34.791C1.89894 34.363 1.6849 33.8468 1.6849 33.2424C1.6849 32.6381 1.89894 32.1219 2.32702 31.6938L7.16177 26.859C7.26249 26.7583 7.31285 26.6261 7.31285 26.4624C7.31285 26.2988 7.26249 26.1666 7.16177 26.0658C7.06104 25.9651 6.92884 25.9147 6.76517 25.9147C6.60149 25.9147 6.46929 25.9651 6.36857 26.0658L1.53382 30.9006C1.20646 31.2279 0.960949 31.5868 0.797272 31.9771C0.633596 32.3674 0.551758 32.7892 0.551758 33.2424C0.551758 33.6957 0.633596 34.1175 0.797272 34.5078C0.960949 34.8981 1.20646 35.2569 1.53382 35.5842L4.10228 38.1527C4.42963 38.4801 4.78846 38.7256 5.17876 38.8893C5.56907 39.0529 5.99085 39.1348 6.44411 39.1348C6.89737 39.1348 7.31915 39.0529 7.70945 38.8893C8.09976 38.7256 8.45859 38.4801 8.78594 38.1527L19.2486 27.69C19.4501 27.4886 19.6012 27.2493 19.7019 26.9723C19.8026 26.6954 19.8278 26.4058 19.7774 26.1036L19.6641 25.3482C19.6389 25.1719 19.6515 25.0082 19.7019 24.8571C19.7523 24.7061 19.8404 24.5676 19.9663 24.4417C20.1174 24.2906 20.2937 24.1961 20.4951 24.1584C20.6965 24.1206 20.8854 24.1395 21.0617 24.215L21.666 24.4417C22.0186 24.5676 22.3774 24.5927 22.7425 24.5172C23.1076 24.4417 23.4161 24.278 23.6679 24.0262C24.0456 23.6485 24.2345 23.2015 24.2345 22.6853C24.2345 22.1691 24.0456 21.7221 23.6679 21.3444L22.497 20.1735L29.4469 13.2235C29.5477 13.1228 29.598 12.9906 29.598 12.8269C29.598 12.6633 29.5477 12.5311 29.4469 12.4303C29.3462 12.3044 29.214 12.2415 29.0503 12.2415C28.8867 12.2415 28.7545 12.3044 28.6537 12.4303L21.7038 19.3803L20.3062 17.9827L30.1268 8.16215L31.5244 9.55969L30.2401 10.8439C30.1142 10.9446 30.0513 11.0768 30.0513 11.2405C30.0513 11.4042 30.1142 11.5364 30.2401 11.6371C30.2905 11.6875 30.3472 11.7253 30.4101 11.7504C30.4731 11.7756 30.5423 11.7882 30.6179 11.7882C30.6934 11.7882 30.7689 11.7756 30.8445 11.7504C30.92 11.7253 30.983 11.6875 31.0333 11.6371L32.6197 10.0507L35.6037 8.99312C35.7296 8.94276 35.8555 8.87351 35.9814 8.78538C36.1073 8.69725 36.208 8.57764 36.2836 8.42655L39.0409 4.04506C39.192 3.76807 39.2486 3.47219 39.2109 3.15743C39.1731 2.84267 39.0409 2.57197 38.8143 2.34534ZM38.0588 3.44072L35.3393 7.85998C35.3141 7.85998 35.2952 7.87257 35.2826 7.89775C35.27 7.92293 35.2512 7.93552 35.226 7.93552L32.4687 8.87981L30.8067 7.21786L31.751 4.46054C31.751 4.43536 31.7636 4.41648 31.7888 4.40389C31.814 4.3913 31.8265 4.37241 31.8265 4.34723L36.2458 1.62769C36.2962 1.6025 36.3465 1.58991 36.3969 1.58991C36.4473 1.58991 36.4976 1.61509 36.548 1.66545L38.0211 3.13854C38.0714 3.1889 38.0966 3.23927 38.0966 3.28963C38.0966 3.33999 38.084 3.39035 38.0588 3.44072Z" fill="#04CF9C"/>
</svg>
