<svg width="40" height="40" viewBox="0 0 40 40" fill="none" xmlns="http://www.w3.org/2000/svg">
<path d="M16.9166 17.303C16.1108 18.134 15.4876 19.072 15.0469 20.117C14.6062 21.162 14.3859 22.2637 14.3859 23.422C14.3859 24.5803 14.6062 25.6883 15.0469 26.7459C15.4876 27.8035 16.1108 28.7478 16.9166 29.5788C17.7475 30.4097 18.6918 31.0393 19.7494 31.4673C20.807 31.8954 21.915 32.1095 23.0733 32.1095C24.2317 32.1095 25.3396 31.8954 26.3972 31.4673C27.4548 31.0393 28.3865 30.4097 29.1923 29.5788C30.0485 28.7226 30.6906 27.7657 31.1187 26.7081C31.5215 25.6505 31.723 24.5615 31.723 23.4409C31.723 22.3203 31.5215 21.2313 31.1187 20.1737C30.6906 19.1161 30.0485 18.1592 29.1923 17.303C28.3613 16.4469 27.4045 15.8174 26.3217 15.4145C25.2641 14.9864 24.1813 14.7723 23.0733 14.7723C21.9654 14.7723 20.87 14.9864 19.7872 15.4145C18.7296 15.8174 17.7727 16.4469 16.9166 17.303ZM28.2102 28.5967C27.5304 29.2766 26.7435 29.8054 25.8495 30.1831C24.9556 30.5608 24.0302 30.7497 23.0733 30.7497C22.0913 30.7497 21.1533 30.5608 20.2594 30.1831C19.3654 29.8054 18.5785 29.2766 17.8986 28.5967C17.2187 27.9168 16.6962 27.1299 16.3311 26.236C15.966 25.3421 15.7834 24.4041 15.7834 23.422C15.7834 22.4651 15.966 21.5397 16.3311 20.6458C16.6962 19.7519 17.2187 18.965 17.8986 18.2851C18.6037 17.58 19.4095 17.0449 20.316 16.6798C21.2225 16.3147 22.1416 16.1321 23.0733 16.1321C24.005 16.1321 24.9178 16.3147 25.8118 16.6798C26.7057 17.0449 27.5052 17.58 28.2102 18.2851C28.9153 18.9902 29.4567 19.7959 29.8344 20.7025C30.187 21.5838 30.3632 22.4966 30.3632 23.4409C30.3632 24.3852 30.187 25.298 29.8344 26.1793C29.4567 27.0858 28.9153 27.8916 28.2102 28.5967ZM38.824 19.8337C38.7989 19.6826 38.7233 19.5567 38.5974 19.456C38.4715 19.3553 38.333 19.3049 38.1819 19.3049H36.2556C36.1549 18.902 36.0227 18.5117 35.859 18.134C35.6953 17.7563 35.5127 17.3912 35.3113 17.0386L36.6711 15.6789C36.7718 15.5781 36.8347 15.4459 36.8599 15.2823C36.8851 15.1186 36.8473 14.9612 36.7466 14.8101C36.4444 14.3065 36.1045 13.8218 35.7268 13.3559C35.3491 12.8901 34.9462 12.4431 34.5181 12.015C34.09 11.5618 33.6368 11.1463 33.1583 10.7686C32.6799 10.3909 32.1888 10.0509 31.6852 9.74873C31.5341 9.64801 31.3831 9.61024 31.232 9.63542C31.0809 9.6606 30.9424 9.72355 30.8165 9.82428L29.4945 11.1841C29.1168 10.9826 28.739 10.8063 28.3613 10.6553C27.9836 10.5042 27.5933 10.3657 27.1904 10.2398V8.35119C27.1904 8.17492 27.1401 8.02384 27.0393 7.89793C26.9386 7.77203 26.8127 7.69648 26.6616 7.6713C26.1832 7.5454 25.7047 7.45097 25.2263 7.38802C24.7479 7.32507 24.2694 7.29359 23.791 7.29359C23.8162 7.19286 23.8162 7.10473 23.791 7.02919C23.7658 6.95364 23.728 6.8781 23.6777 6.80256C23.451 6.39966 23.1866 6.01565 22.8845 5.65053C22.5823 5.2854 22.2675 4.93917 21.9402 4.61181C21.6128 4.28446 21.2666 3.9697 20.9015 3.66753C20.5363 3.36535 20.1523 3.10095 19.7494 2.87432C19.6235 2.7736 19.4787 2.73583 19.3151 2.76101C19.1514 2.78619 19.0192 2.84914 18.9185 2.94987L17.9742 3.89415C17.7224 3.76825 17.4643 3.64864 17.1999 3.53532C16.9355 3.42201 16.6774 3.32758 16.4255 3.25204V1.93004C16.4255 1.77895 16.3752 1.63416 16.2745 1.49567C16.1737 1.35717 16.0352 1.27533 15.859 1.25015C14.9525 1.0487 14.0271 0.947979 13.0828 0.947979C12.1385 0.947979 11.2131 1.0487 10.3066 1.25015C10.1555 1.27533 10.0296 1.35717 9.92885 1.49567C9.82813 1.63416 9.77777 1.77895 9.77777 1.93004V3.25204C9.50077 3.32758 9.23637 3.42201 8.98456 3.53532C8.73275 3.64864 8.48094 3.76825 8.22913 3.89415L7.28485 2.94987C7.15894 2.84914 7.01415 2.78619 6.85048 2.76101C6.6868 2.73583 6.54201 2.7736 6.4161 2.87432C6.01321 3.10095 5.6292 3.36535 5.26407 3.66753C4.89895 3.9697 4.55271 4.28446 4.22536 4.61181C3.898 4.93917 3.58954 5.2854 3.29996 5.65053C3.01037 6.01565 2.73968 6.39966 2.48787 6.80256C2.38715 6.92846 2.34937 7.07325 2.37455 7.23693C2.39974 7.40061 2.46269 7.5454 2.56341 7.6713L3.5077 8.57782C3.38179 8.82963 3.26848 9.08773 3.16776 9.35213C3.06703 9.61653 2.96631 9.88723 2.86558 10.1642H1.54358C1.3925 10.1642 1.254 10.2146 1.1281 10.3153C1.00219 10.416 0.914057 10.5419 0.863695 10.693C0.662247 11.5995 0.561523 12.5249 0.561523 13.4692C0.561523 14.4135 0.662247 15.3389 0.863695 16.2454C0.914057 16.3965 1.00219 16.5224 1.1281 16.6231C1.254 16.7239 1.3925 16.7742 1.54358 16.7742H2.86558C2.96631 17.0512 3.06703 17.3219 3.16776 17.5863C3.26848 17.8507 3.38179 18.1088 3.5077 18.3606L2.56341 19.2671C2.46269 19.3931 2.39974 19.5378 2.37455 19.7015C2.34937 19.8652 2.38715 20.01 2.48787 20.1359C2.73968 20.5388 3.01037 20.9228 3.29996 21.2879C3.58954 21.653 3.898 21.9993 4.22536 22.3266C4.55271 22.654 4.89895 22.9625 5.26407 23.252C5.6292 23.5416 6.01321 23.8123 6.4161 24.0641C6.46646 24.1145 6.52312 24.146 6.58607 24.1586C6.64903 24.1711 6.71828 24.1774 6.79382 24.1774H6.83159H6.90713C6.93231 24.6559 6.97638 25.1343 7.03933 25.6128C7.10228 26.0912 7.18412 26.5696 7.28485 27.0481C7.31003 27.1992 7.38557 27.3251 7.51148 27.4258C7.63738 27.5265 7.78847 27.5769 7.96473 27.5769H9.85331C9.97921 27.9798 10.1177 28.3701 10.2688 28.7478C10.4199 29.1255 10.5961 29.4906 10.7976 29.8432L9.47559 31.2029C9.34969 31.3037 9.28044 31.4359 9.26785 31.5995C9.25526 31.7632 9.28674 31.9206 9.36228 32.0717C9.68963 32.5753 10.0422 33.06 10.4199 33.5259C10.7976 33.9917 11.2005 34.4387 11.6286 34.8668C12.0566 35.2948 12.5036 35.6977 12.9695 36.0755C13.4353 36.4532 13.9326 36.8057 14.4614 37.1331C14.5873 37.2338 14.7321 37.2716 14.8958 37.2464C15.0595 37.2212 15.1917 37.1582 15.2924 37.0575L16.6522 35.6977C17.0047 35.8992 17.3761 36.0755 17.7664 36.2265C18.1567 36.3776 18.5407 36.5161 18.9185 36.642V38.5306C18.9185 38.7069 18.9688 38.858 19.0695 38.9839C19.1703 39.1098 19.3088 39.1853 19.485 39.2105C20.0642 39.3616 20.656 39.4686 21.2603 39.5315C21.8646 39.5945 22.469 39.626 23.0733 39.626C23.6777 39.626 24.2757 39.5882 24.8675 39.5127C25.4592 39.4371 26.0573 39.3364 26.6616 39.2105C26.8127 39.1853 26.9386 39.1098 27.0393 38.9839C27.1401 38.858 27.1904 38.7069 27.1904 38.5306V36.642C27.5933 36.5161 27.9836 36.3776 28.3613 36.2265C28.739 36.0755 29.1168 35.8992 29.4945 35.6977L30.8165 37.0575C30.9424 37.1582 31.0809 37.2212 31.232 37.2464C31.3831 37.2716 31.5341 37.2338 31.6852 37.1331C32.1888 36.8057 32.6799 36.4532 33.1583 36.0755C33.6368 35.6977 34.09 35.2948 34.5181 34.8668C34.9462 34.4387 35.3491 33.9917 35.7268 33.5259C36.1045 33.06 36.4444 32.5753 36.7466 32.0717C36.8473 31.9206 36.8851 31.7632 36.8599 31.5995C36.8347 31.4359 36.7718 31.3037 36.6711 31.2029L35.3113 29.8432C35.5127 29.4906 35.6953 29.1255 35.859 28.7478C36.0227 28.3701 36.1549 27.9798 36.2556 27.5769H38.1441C38.3204 27.5769 38.4715 27.5265 38.5974 27.4258C38.7233 27.3251 38.7989 27.1992 38.824 27.0481C39.101 25.8646 39.2395 24.6622 39.2395 23.4409C39.2395 22.2196 39.101 21.0172 38.824 19.8337ZM7.28485 19.8337C7.18412 20.2618 7.10228 20.6836 7.03933 21.0991C6.97638 21.5146 6.93231 21.9363 6.90713 22.3644L6.6805 22.591C6.42869 22.4148 6.17688 22.2196 5.92507 22.0056C5.67326 21.7915 5.43404 21.5712 5.20742 21.3446C4.98079 21.118 4.76045 20.8787 4.54641 20.6269C4.33238 20.3751 4.13722 20.1233 3.96096 19.8715L4.86747 18.965C4.9682 18.8391 5.03115 18.7006 5.05633 18.5495C5.08151 18.3984 5.05633 18.2599 4.98079 18.134C4.77934 17.7815 4.60307 17.4226 4.45199 17.0575C4.3009 16.6924 4.175 16.3084 4.07427 15.9055C4.02391 15.7544 3.93578 15.6348 3.80987 15.5467C3.68397 15.4585 3.54547 15.4145 3.39438 15.4145H2.11015C2.00943 14.7598 1.95907 14.1113 1.95907 13.4692C1.95907 12.8271 2.00943 12.1787 2.11015 11.524H3.39438C3.54547 11.524 3.68397 11.4799 3.80987 11.3918C3.93578 11.3037 4.02391 11.1841 4.07427 11.033C4.175 10.6301 4.3009 10.2461 4.45199 9.88093C4.60307 9.51581 4.77934 9.15698 4.98079 8.80445C5.05633 8.67854 5.08151 8.54005 5.05633 8.38896C5.03115 8.23787 4.9682 8.09938 4.86747 7.97347L3.96096 7.06696C4.13722 6.81515 4.33238 6.56334 4.54641 6.31153C4.76045 6.05972 4.98079 5.8205 5.20742 5.59387C5.43404 5.36724 5.67326 5.14691 5.92507 4.93287C6.17688 4.71883 6.42869 4.52368 6.6805 4.34741L7.58702 5.25393C7.71292 5.35465 7.85142 5.4176 8.00251 5.44279C8.15359 5.46797 8.29209 5.44279 8.41799 5.36724C8.77053 5.16579 9.13565 4.98953 9.51336 4.83844C9.89108 4.68736 10.2688 4.54886 10.6465 4.42295C10.7976 4.39777 10.9172 4.32223 11.0053 4.19633C11.0935 4.07042 11.1375 3.93193 11.1375 3.78084V2.49661C11.7922 2.39589 12.4469 2.34552 13.1017 2.34552C13.7564 2.34552 14.3985 2.39589 15.028 2.49661V3.78084C15.028 3.93193 15.0721 4.07042 15.1602 4.19633C15.2483 4.32223 15.3679 4.39777 15.519 4.42295C15.9219 4.54886 16.3059 4.68736 16.6711 4.83844C17.0362 4.98953 17.395 5.16579 17.7475 5.36724C17.8735 5.44279 18.0182 5.46797 18.1819 5.44279C18.3456 5.4176 18.4778 5.35465 18.5785 5.25393L19.485 4.34741C19.7368 4.52368 19.9887 4.71883 20.2405 4.93287C20.4923 5.14691 20.7315 5.36724 20.9581 5.59387C21.1848 5.8205 21.4051 6.05972 21.6191 6.31153C21.8332 6.56334 22.0283 6.81515 22.2046 7.06696L22.0157 7.29359C21.5876 7.31877 21.1596 7.36283 20.7315 7.42579C20.3034 7.48874 19.8879 7.57058 19.485 7.6713C19.3088 7.69648 19.1703 7.77203 19.0695 7.89793C18.9688 8.02384 18.9185 8.17492 18.9185 8.35119V9.97536C18.7926 9.74873 18.6415 9.52211 18.4652 9.29548C18.2889 9.06885 18.1001 8.85481 17.8986 8.65336C17.2439 8.02384 16.5074 7.5391 15.689 7.19916C14.8706 6.85921 14.0082 6.68924 13.1017 6.68924C12.1951 6.68924 11.3264 6.85921 10.4954 7.19916C9.66445 7.5391 8.92161 8.02384 8.26691 8.65336C6.95749 9.98795 6.30279 11.5932 6.30279 13.4692C6.30279 15.3452 6.95749 16.9505 8.26691 18.2851C8.46835 18.4865 8.68239 18.6691 8.90902 18.8328C9.13565 18.9965 9.37487 19.1538 9.62668 19.3049H7.96473C7.78847 19.3049 7.63738 19.3553 7.51148 19.456C7.38557 19.5567 7.31003 19.6826 7.28485 19.8337ZM9.47559 15.6789L10.7976 17.0386C10.6969 17.1897 10.6087 17.3597 10.5332 17.5485C10.4577 17.7374 10.3821 17.92 10.3066 18.0962C10.1051 17.9955 9.92256 17.8759 9.75888 17.7374C9.5952 17.5989 9.42523 17.4541 9.24896 17.303C8.21654 16.2454 7.70033 14.9675 7.70033 13.4692C7.70033 11.971 8.21654 10.693 9.24896 9.63542C9.77777 9.1318 10.3695 8.7415 11.0242 8.4645C11.6789 8.18751 12.3714 8.04902 13.1017 8.04902C13.8067 8.04902 14.4929 8.18751 15.1602 8.4645C15.8275 8.7415 16.413 9.1318 16.9166 9.63542C17.0677 9.78651 17.2125 9.95018 17.3509 10.1264C17.4894 10.3027 17.6091 10.479 17.7098 10.6553C17.5335 10.7308 17.3572 10.8126 17.181 10.9008C17.0047 10.9889 16.8284 11.0833 16.6522 11.1841L15.2924 9.82428C15.1917 9.72355 15.0595 9.6606 14.8958 9.63542C14.7321 9.61024 14.5873 9.64801 14.4614 9.74873C13.9326 10.0509 13.4353 10.3909 12.9695 10.7686C12.5036 11.1463 12.0566 11.5618 11.6286 12.015C11.2005 12.4431 10.7976 12.8901 10.4199 13.3559C10.0422 13.8218 9.68963 14.3065 9.36228 14.8101C9.28674 14.9612 9.25526 15.1186 9.26785 15.2823C9.28044 15.4459 9.34969 15.5781 9.47559 15.6789ZM37.6153 26.1793H35.7645C35.5883 26.1793 35.4435 26.2297 35.3302 26.3304C35.2169 26.4311 35.135 26.557 35.0847 26.7081C34.9336 27.2117 34.7573 27.7091 34.5559 28.2001C34.3544 28.6911 34.1278 29.1759 33.876 29.6543C33.8004 29.7802 33.769 29.9187 33.7815 30.0698C33.7941 30.2209 33.8634 30.3594 33.9893 30.4853L35.2735 31.7695C35.0217 32.1472 34.751 32.5123 34.4614 32.8649C34.1718 33.2174 33.8634 33.5574 33.536 33.8847C33.2087 34.2121 32.8624 34.5268 32.4973 34.829C32.1322 35.1312 31.7608 35.4082 31.3831 35.66L30.0988 34.338C29.9729 34.2372 29.8344 34.1743 29.6833 34.1491C29.5322 34.1239 29.3938 34.1617 29.2678 34.2624C28.7894 34.5142 28.3047 34.7409 27.8136 34.9423C27.3226 35.1438 26.8253 35.32 26.3217 35.4711C26.1706 35.4963 26.0447 35.5718 25.944 35.6977C25.8432 35.8236 25.7929 35.9621 25.7929 36.1132V37.964C24.9115 38.1403 24.005 38.2284 23.0733 38.2284C22.1416 38.2284 21.2225 38.1403 20.316 37.964V36.1132C20.316 35.9621 20.2656 35.8236 20.1649 35.6977C20.0642 35.5718 19.9383 35.4963 19.7872 35.4711C19.2836 35.32 18.7863 35.1438 18.2952 34.9423C17.8042 34.7409 17.3321 34.5142 16.8788 34.2624C16.7277 34.1617 16.5766 34.1239 16.4255 34.1491C16.2745 34.1743 16.136 34.2372 16.0101 34.338L14.7258 35.66C14.3481 35.4082 13.983 35.1312 13.6305 34.829C13.2779 34.5268 12.938 34.2121 12.6106 33.8847C12.2833 33.5574 11.9685 33.2174 11.6663 32.8649C11.3642 32.5123 11.0872 32.1472 10.8354 31.7695L12.1574 30.4853C12.2581 30.3594 12.321 30.2209 12.3462 30.0698C12.3714 29.9187 12.3462 29.7802 12.2707 29.6543C11.9937 29.1759 11.7545 28.6911 11.553 28.2001C11.3516 27.7091 11.1753 27.2117 11.0242 26.7081C10.999 26.557 10.9235 26.4311 10.7976 26.3304C10.6717 26.2297 10.5332 26.1793 10.3821 26.1793H8.53131C8.35504 25.2728 8.26691 24.36 8.26691 23.4409C8.26691 22.5218 8.35504 21.609 8.53131 20.7025H10.3821C10.5332 20.7025 10.6717 20.6521 10.7976 20.5514C10.9235 20.4507 10.999 20.3247 11.0242 20.1737C11.1753 19.67 11.3516 19.1727 11.553 18.6817C11.7545 18.1907 11.9937 17.7059 12.2707 17.2275C12.3462 17.1016 12.3714 16.9631 12.3462 16.812C12.321 16.6609 12.2581 16.5224 12.1574 16.3965L10.8354 15.1123C11.0872 14.7346 11.3642 14.3631 11.6663 13.998C11.9685 13.6329 12.2833 13.2867 12.6106 12.9593C12.938 12.632 13.2779 12.3235 13.6305 12.0339C13.983 11.7443 14.3481 11.4736 14.7258 11.2218L16.0101 12.5061C16.136 12.632 16.2745 12.7012 16.4255 12.7138C16.5766 12.7264 16.7277 12.6949 16.8788 12.6194C17.3321 12.3676 17.8042 12.1409 18.2952 11.9395C18.7863 11.738 19.2836 11.5618 19.7872 11.4107C19.9383 11.3855 20.0642 11.31 20.1649 11.1841C20.2656 11.0581 20.316 10.9071 20.316 10.7308V8.91776C21.2225 8.7415 22.1353 8.65336 23.0544 8.65336C23.9735 8.65336 24.8864 8.7415 25.7929 8.91776V10.7308C25.7929 10.9071 25.8432 11.0581 25.944 11.1841C26.0447 11.31 26.1706 11.3855 26.3217 11.4107C26.8253 11.5618 27.3226 11.738 27.8136 11.9395C28.3047 12.1409 28.7894 12.3676 29.2678 12.6194C29.3938 12.6949 29.5322 12.7264 29.6833 12.7138C29.8344 12.7012 29.9729 12.632 30.0988 12.5061L31.3831 11.2218C31.7608 11.4736 32.1322 11.7443 32.4973 12.0339C32.8624 12.3235 33.2087 12.632 33.536 12.9593C33.8634 13.2867 34.1718 13.6329 34.4614 13.998C34.751 14.3631 35.0217 14.7346 35.2735 15.1123L33.9893 16.3965C33.8634 16.5224 33.7941 16.6609 33.7815 16.812C33.769 16.9631 33.8004 17.1016 33.876 17.2275C34.1278 17.7059 34.3544 18.1907 34.5559 18.6817C34.7573 19.1727 34.9336 19.67 35.0847 20.1737C35.135 20.3247 35.2169 20.4507 35.3302 20.5514C35.4435 20.6521 35.5883 20.7025 35.7645 20.7025H37.6153C37.7664 21.609 37.842 22.5218 37.842 23.4409C37.842 24.36 37.7664 25.2728 37.6153 26.1793ZM20.6182 21.0046C19.9383 21.6593 19.5984 22.4651 19.5984 23.422C19.5984 24.3789 19.9383 25.1973 20.6182 25.8772C20.9455 26.2297 21.3232 26.4878 21.7513 26.6515C22.1794 26.8151 22.6201 26.897 23.0733 26.897C23.5014 26.897 23.9295 26.8151 24.3576 26.6515C24.7856 26.4878 25.1633 26.2297 25.4907 25.8772C26.1706 25.1973 26.5105 24.3789 26.5105 23.422C26.5105 22.4651 26.1706 21.6593 25.4907 21.0046C24.836 20.3247 24.0302 19.9848 23.0733 19.9848C22.1164 19.9848 21.2981 20.3247 20.6182 21.0046ZM24.5086 24.8951C24.1057 25.298 23.621 25.4994 23.0544 25.4994C22.4879 25.4994 22.0031 25.298 21.6002 24.8951C21.1973 24.4922 20.9959 24.0075 20.9959 23.4409C20.9959 22.8743 21.1973 22.3896 21.6002 21.9867C21.8017 21.7852 22.0283 21.6342 22.2801 21.5334C22.5319 21.4327 22.7963 21.3824 23.0733 21.3824C23.3251 21.3824 23.5769 21.4327 23.8288 21.5334C24.0806 21.6342 24.3072 21.7852 24.5086 21.9867C24.9367 22.3896 25.1508 22.8743 25.1508 23.4409C25.1508 24.0075 24.9367 24.4922 24.5086 24.8951Z" fill="#04CF9C"/>
</svg>
