<svg width="51" height="51" viewBox="0 0 51 51" fill="none" xmlns="http://www.w3.org/2000/svg">
<path d="M48.0977 43.1221L48.1953 38.2881C48.1953 38.2555 48.1546 37.7103 48.0732 36.6523C47.9919 35.5944 47.7233 34.4144 47.2676 33.1123L44.6797 27.0088H40.3828L37.6973 33.21C37.3066 34.4469 37.0706 35.5944 36.9893 36.6523C36.9079 37.7103 36.8672 38.2555 36.8672 38.2881V39.8994H34.4746C33.8236 39.8994 33.262 39.6634 32.79 39.1914C32.318 38.7194 32.082 38.1579 32.082 37.5068V34.0889C34.0352 32.9821 35.6058 31.444 36.7939 29.4746C37.9821 27.5052 38.5762 25.3161 38.5762 22.9072V22.8096C39.2923 22.6143 39.8701 22.2318 40.3096 21.6621C40.749 21.0924 40.9688 20.4333 40.9688 19.6846C40.9688 18.9359 40.8711 18.3337 40.6758 17.8779C40.4805 17.4222 40.2852 17.0967 40.0898 16.9014C40.0898 16.8363 40.0898 16.763 40.0898 16.6816C40.0898 16.6003 40.0898 16.5107 40.0898 16.4131V14.8018C40.0573 12.8161 39.6504 10.9281 38.8691 9.1377C38.1204 7.37988 37.0869 5.84993 35.7686 4.54785C34.4502 3.24577 32.9121 2.2041 31.1543 1.42285C29.3639 0.674152 27.4759 0.299805 25.4902 0.299805C23.5046 0.299805 21.6165 0.674152 19.8262 1.42285C18.0684 2.2041 16.5384 3.24577 15.2363 4.54785C13.9342 5.84993 12.8926 7.37988 12.1113 9.1377C11.3626 10.9281 10.9883 12.8161 10.9883 14.8018V16.4131C10.9883 16.5107 10.9883 16.5921 10.9883 16.6572C10.9883 16.7223 10.9883 16.8037 10.9883 16.9014C10.8255 17.0967 10.6383 17.4222 10.4268 17.8779C10.2152 18.3337 10.1094 18.9359 10.1094 19.6846C10.1094 20.4333 10.3291 21.1006 10.7686 21.6865C11.208 22.2725 11.7858 22.6468 12.502 22.8096V22.9072C12.502 25.3161 13.096 27.4971 14.2842 29.4502C15.4723 31.4033 17.043 32.9495 18.9961 34.0889V37.5068C18.9961 38.1579 18.7601 38.7194 18.2881 39.1914C17.8161 39.6634 17.2546 39.8994 16.6035 39.8994H12.5996V38.7764C13.3809 38.2881 13.9749 37.6696 14.3818 36.9209C14.7887 36.1722 14.9922 35.2933 14.9922 34.2842C14.9922 33.3076 14.6667 32.3311 14.0156 31.3545C13.3646 30.3779 12.388 29.7594 11.0859 29.499L10.1094 29.3037V33.5029H8.5957V29.3037L7.57031 29.499C6.33333 29.792 5.38119 30.4268 4.71387 31.4033C4.04655 32.3799 3.71289 33.3402 3.71289 34.2842C3.71289 35.2933 3.9082 36.1722 4.29883 36.9209C4.68945 37.6696 5.29167 38.2881 6.10547 38.7764V40.7783C4.44531 41.527 3.0944 42.6826 2.05273 44.2451C1.01107 45.8076 0.490234 47.5654 0.490234 49.5186V50.2998H2.10156V49.5186C2.10156 47.4027 2.80143 45.5879 4.20117 44.0742C5.60091 42.5605 7.32617 41.7061 9.37695 41.5107V50.2998H10.9883V41.4131H13.3809V50.2998H14.9922V41.4131H16.6035C16.7337 41.4131 16.8802 41.3968 17.043 41.3643C17.2057 41.3317 17.3848 41.3154 17.5801 41.3154C17.9382 43.1709 18.8577 44.7334 20.3389 46.0029C21.82 47.2725 23.5371 47.9072 25.4902 47.9072C27.4434 47.9072 29.1605 47.2806 30.6416 46.0273C32.1227 44.7741 33.0423 43.2035 33.4004 41.3154C33.5306 41.348 33.6771 41.3724 33.8398 41.3887C34.0026 41.4049 34.1816 41.4131 34.377 41.4131H35.9883V50.2998H37.5996V41.4131H39.9922V50.2998H41.6035V41.5107C43.6543 41.7061 45.3796 42.5768 46.7793 44.123C48.179 45.6693 48.8789 47.4678 48.8789 49.5186V50.2998H50.4902V49.5186C50.4902 48.3141 50.2786 47.1585 49.8555 46.0518C49.4323 44.945 48.8464 43.9684 48.0977 43.1221ZM11.3789 37.5068L10.9883 37.7021V39.8018H10.207C9.78385 39.8018 9.37695 39.8262 8.98633 39.875C8.5957 39.9238 8.20508 39.9971 7.81445 40.0947V37.7021L7.375 37.5068C6.72396 37.1488 6.22754 36.7093 5.88574 36.1885C5.54395 35.6676 5.37305 35.0003 5.37305 34.1865C5.37305 33.6982 5.51953 33.1855 5.8125 32.6484C6.10547 32.1113 6.49609 31.6637 6.98438 31.3057V35.0166H11.7695V31.3057C12.3229 31.5986 12.7298 32.0137 12.9902 32.5508C13.2507 33.0879 13.3809 33.6331 13.3809 34.1865C13.3809 35.0003 13.2262 35.6839 12.917 36.2373C12.6077 36.7907 12.0951 37.2139 11.3789 37.5068ZM38.3809 19.001C38.4785 18.9359 38.5762 18.8626 38.6738 18.7812C38.7715 18.6999 38.8691 18.6104 38.9668 18.5127C39.0319 18.6429 39.0889 18.8138 39.1377 19.0254C39.1865 19.237 39.2109 19.4567 39.2109 19.6846C39.2109 20.0101 39.1377 20.2868 38.9912 20.5146C38.8447 20.7425 38.6413 20.9378 38.3809 21.1006V19.001ZM24.709 2.00879V7.62402H26.2715V2.00879C27.9316 2.10645 29.4941 2.49707 30.959 3.18066C32.3913 3.86426 33.6527 4.75944 34.7432 5.86621C35.8337 6.97298 36.7044 8.25879 37.3555 9.72363C38.0065 11.1885 38.3483 12.751 38.3809 14.4111C36.9486 13.6624 34.9385 13.1416 32.3506 12.8486C29.7627 12.5557 27.4759 12.4092 25.4902 12.4092C23.5046 12.4092 21.2178 12.5557 18.6299 12.8486C16.042 13.1416 14.0319 13.6624 12.5996 14.4111C12.6322 12.751 12.974 11.1885 13.625 9.72363C14.276 8.25879 15.1468 6.97298 16.2373 5.86621C17.3278 4.75944 18.5892 3.86426 20.0215 3.18066C21.4863 2.49707 23.0488 2.10645 24.709 2.00879ZM12.5996 21.1006C12.3392 20.9378 12.1357 20.7425 11.9893 20.5146C11.8428 20.2868 11.7695 20.0101 11.7695 19.6846C11.7695 19.4567 11.7939 19.237 11.8428 19.0254C11.8916 18.8138 11.9486 18.6429 12.0137 18.5127C12.1113 18.6104 12.209 18.6917 12.3066 18.7568C12.4043 18.8219 12.502 18.9033 12.5996 19.001V21.1006ZM12.5996 16.4131C12.6973 15.9899 13.8691 15.4854 16.1152 14.8994C18.3613 14.3135 21.4863 14.0205 25.4902 14.0205C29.5267 14.0205 32.6761 14.3135 34.9385 14.8994C37.2008 15.4854 38.3483 15.9899 38.3809 16.4131C38.3809 17.1943 37.2415 17.9186 34.9629 18.5859C32.6842 19.2533 29.5267 19.5869 25.4902 19.5869C21.4538 19.652 18.2962 19.3346 16.0176 18.6348C13.7389 17.9349 12.5996 17.1943 12.5996 16.4131ZM14.2109 22.9072V19.7822C16.0013 20.4333 18.0521 20.8483 20.3633 21.0273C22.6745 21.2064 24.3835 21.2959 25.4902 21.2959C26.597 21.2959 28.306 21.2227 30.6172 21.0762C32.9284 20.9297 34.9792 20.4984 36.7695 19.7822V22.9072C36.7695 24.4372 36.4766 25.902 35.8906 27.3018C35.3047 28.6689 34.499 29.8652 33.4736 30.8906C32.4482 31.916 31.252 32.7217 29.8848 33.3076C28.5176 33.8936 27.0527 34.1865 25.4902 34.1865C23.9277 34.1865 22.4629 33.8936 21.0957 33.3076C19.7285 32.7217 18.5322 31.916 17.5068 30.8906C16.4814 29.8652 15.6758 28.6689 15.0898 27.3018C14.5039 25.902 14.2109 24.4372 14.2109 22.9072ZM25.4902 46.2959C23.8301 46.2959 22.3978 45.7425 21.1934 44.6357C19.9889 43.529 19.2891 42.1781 19.0938 40.583C19.5495 40.2575 19.932 39.8099 20.2412 39.2402C20.5505 38.6706 20.7051 38.0602 20.7051 37.4092V34.8213C21.4538 35.1143 22.2269 35.3503 23.0244 35.5293C23.8219 35.7083 24.6439 35.7979 25.4902 35.7979C26.3366 35.7979 27.1585 35.7165 27.9561 35.5537C28.7536 35.391 29.5267 35.1468 30.2754 34.8213V37.4092C30.2754 38.0602 30.4219 38.6543 30.7148 39.1914C31.0078 39.7285 31.3984 40.1924 31.8867 40.583C31.724 42.1781 31.0322 43.529 29.8115 44.6357C28.5908 45.7425 27.1504 46.2959 25.4902 46.2959ZM40.6758 39.8018H38.4785V38.1904C38.4785 38.1904 38.5111 37.7184 38.5762 36.7744C38.6413 35.8304 38.8529 34.805 39.2109 33.6982L41.4082 28.5225H41.7012V35.8955C41.2454 36.0583 40.863 36.3431 40.5537 36.75C40.2445 37.1569 40.0898 37.637 40.0898 38.1904C40.0247 38.5485 40.0573 38.8577 40.1875 39.1182C40.3177 39.3786 40.4805 39.6064 40.6758 39.8018ZM42.4824 39.0205C42.2871 39.0205 42.1081 38.931 41.9453 38.752C41.7826 38.5729 41.7012 38.3857 41.7012 38.1904C41.7012 37.9951 41.7826 37.8161 41.9453 37.6533C42.1081 37.4906 42.2871 37.4092 42.4824 37.4092C42.6777 37.4092 42.8649 37.4906 43.0439 37.6533C43.223 37.8161 43.3125 37.9951 43.3125 38.1904C43.3125 38.3857 43.223 38.5729 43.0439 38.752C42.8649 38.931 42.6777 39.0205 42.4824 39.0205ZM46.4863 41.7061C46.0957 41.4131 45.6562 41.1445 45.168 40.9004C44.6797 40.6562 44.1914 40.4528 43.7031 40.29C44.0286 40.0947 44.3053 39.8099 44.5332 39.4355C44.7611 39.0612 44.875 38.6462 44.875 38.1904C44.875 37.637 44.7204 37.165 44.4111 36.7744C44.1019 36.3838 43.7357 36.0908 43.3125 35.8955V28.5225H43.6055L45.8027 33.6006C46.1934 34.7399 46.4212 35.7897 46.4863 36.75C46.5514 37.7103 46.584 38.1904 46.584 38.1904L46.4863 41.7061ZM26.2715 23.6885H33.5957V22.0771H24.709V30.1826H26.2715V23.6885ZM14.9922 10.7979H16.6035V12.4092H14.9922V10.7979ZM18.3125 10.0166H19.875V11.5791H18.3125V10.0166Z" fill="#04CF9C"/>
</svg>
