<svg width="33" height="34" viewBox="0 0 33 34" fill="none" xmlns="http://www.w3.org/2000/svg">
<path d="M0.0969238 3.12891L2.32056 6.96387C2.34204 7.02832 2.38501 7.0874 2.44946 7.14111C2.51392 7.19482 2.57837 7.23242 2.64282 7.25391L4.70532 7.7373L11.7307 14.7949L12.5364 14.0215L5.38208 6.86719C5.33911 6.82422 5.29614 6.79199 5.25317 6.77051C5.21021 6.74902 5.16724 6.72754 5.12427 6.70605L3.12622 6.22266L1.25708 2.93555L2.86841 1.32422L6.15552 3.22559L6.63892 5.19141C6.6604 5.23438 6.68188 5.27734 6.70337 5.32031C6.72485 5.36328 6.75708 5.40625 6.80005 5.44922L13.9543 12.6035L14.7278 11.8301L7.67017 4.77246L7.18677 2.70996C7.16528 2.64551 7.12769 2.58105 7.07397 2.5166C7.02026 2.45215 6.96118 2.40918 6.89673 2.3877L3.06177 0.164062C2.95435 0.121094 2.84155 0.10498 2.72339 0.115723C2.60522 0.126465 2.49243 0.174805 2.38501 0.260742L0.193604 2.45215C0.107666 2.53809 0.0539551 2.64551 0.0324707 2.77441C0.0109863 2.90332 0.0324707 3.02148 0.0969238 3.12891ZM22.9778 10.9277L10.8606 23.0449L10.0872 22.2715L22.2043 10.1543L22.9778 10.9277ZM8.76587 23.4639C8.70142 23.3779 8.63159 23.3135 8.5564 23.2705C8.4812 23.2275 8.38989 23.2061 8.28247 23.2061H4.99536C4.88794 23.2061 4.79126 23.2275 4.70532 23.2705C4.61938 23.3135 4.55493 23.3779 4.51196 23.4639L2.86841 26.2354C2.80396 26.3213 2.77173 26.4126 2.77173 26.5093C2.77173 26.606 2.80396 26.6973 2.86841 26.7832L4.51196 29.5547C4.55493 29.6406 4.61938 29.7051 4.70532 29.748C4.79126 29.791 4.88794 29.8125 4.99536 29.8125H8.28247C8.38989 29.8125 8.4812 29.791 8.5564 29.748C8.63159 29.7051 8.70142 29.6406 8.76587 29.5547L10.4094 26.7832C10.4524 26.6973 10.4739 26.606 10.4739 26.5093C10.4739 26.4126 10.4524 26.3213 10.4094 26.2354L8.76587 23.4639ZM7.96021 28.7168H5.2854L3.96411 26.5254L5.2854 24.3018H7.96021L9.28149 26.5254L7.96021 28.7168ZM26.426 13.3125C27.3499 13.3125 28.2092 13.1406 29.0042 12.7969C29.7991 12.4531 30.4973 11.9858 31.0989 11.395C31.7004 10.8042 32.1731 10.1113 32.5168 9.31641C32.8606 8.52148 33.0325 7.66211 33.0325 6.73828C33.0325 6.45898 33.0164 6.18506 32.9841 5.9165C32.9519 5.64795 32.9036 5.37402 32.8391 5.09473C32.7961 4.96582 32.7102 4.8584 32.5813 4.77246C32.4524 4.68652 32.3127 4.66504 32.1624 4.70801C32.1194 4.72949 32.0764 4.75098 32.0334 4.77246C31.9905 4.79395 31.9475 4.81543 31.9045 4.83691L28.4885 8.28516L25.7815 7.38281L24.8792 4.64355L28.2952 1.22754C28.4026 1.12012 28.4563 0.991211 28.4563 0.84082C28.4563 0.69043 28.4026 0.561523 28.2952 0.454102C28.2522 0.411133 28.2092 0.378906 28.1663 0.357422C28.1233 0.335938 28.0803 0.314453 28.0374 0.292969C27.1565 0.078125 26.2864 0.0351562 25.427 0.164062C24.5676 0.314453 23.7781 0.604492 23.0583 1.03418C22.3386 1.46387 21.7102 2.02246 21.1731 2.70996C20.636 3.39746 20.26 4.18164 20.0452 5.0625C19.9807 5.3418 19.9324 5.61572 19.9001 5.88428C19.8679 6.15283 19.8518 6.42676 19.8518 6.70605C19.8518 6.9209 19.8625 7.13574 19.884 7.35059C19.9055 7.56543 19.9377 7.78027 19.9807 7.99512L7.92798 20.0479C7.71313 20.0049 7.49829 19.9727 7.28345 19.9512C7.0686 19.9297 6.85376 19.9189 6.63892 19.9189C5.71509 19.9189 4.85571 20.0908 4.06079 20.4346C3.26587 20.7783 2.56763 21.2456 1.96606 21.8364C1.3645 22.4272 0.891846 23.1309 0.548096 23.9473C0.204346 24.7422 0.0324707 25.6016 0.0324707 26.5254C0.0324707 27.4277 0.204346 28.2764 0.548096 29.0713C0.891846 29.8877 1.3645 30.5913 1.96606 31.1821C2.56763 31.7729 3.26587 32.2402 4.06079 32.584C4.85571 32.9277 5.71509 33.0996 6.63892 33.0996C7.54126 33.0996 8.40063 32.9277 9.21704 32.584C10.012 32.2402 10.7102 31.7729 11.3118 31.1821C11.9133 30.5913 12.386 29.8877 12.7297 29.0713C13.0735 28.2764 13.2454 27.4277 13.2454 26.5254C13.2454 26.2891 13.2346 26.0635 13.2131 25.8486C13.1917 25.6338 13.1594 25.4297 13.1165 25.2363L15.9846 22.3359L17.2415 23.5928C17.3489 23.7002 17.4778 23.7539 17.6282 23.7539C17.7786 23.7539 17.9075 23.7002 18.0149 23.5928L18.3049 23.335C18.4338 23.2061 18.5789 23.1416 18.74 23.1416C18.9011 23.1416 19.0461 23.2061 19.175 23.335C19.304 23.4424 19.3684 23.582 19.3684 23.7539C19.3684 23.9258 19.304 24.0762 19.175 24.2051L18.885 24.4629C18.7776 24.5703 18.7239 24.6992 18.7239 24.8496C18.7239 25 18.7776 25.1289 18.885 25.2363L25.4592 31.8105C26.3186 32.6914 27.3606 33.1318 28.5852 33.1318C29.8098 33.1318 30.8625 32.7021 31.7434 31.8428C32.6243 30.9834 33.0647 29.9414 33.0647 28.7168C33.0647 27.4922 32.635 26.4395 31.7756 25.5586C31.7756 25.5586 31.7703 25.5532 31.7595 25.5425C31.7488 25.5317 31.7434 25.5264 31.7434 25.5264L25.1692 18.9521C25.0618 18.8447 24.9329 18.791 24.7825 18.791C24.6321 18.791 24.5032 18.8447 24.3958 18.9521L24.1379 19.2422C24.009 19.3711 23.8586 19.4355 23.6868 19.4355C23.5149 19.4355 23.3752 19.3711 23.2678 19.2422C23.1389 19.1133 23.0745 18.9683 23.0745 18.8071C23.0745 18.646 23.1389 18.501 23.2678 18.3721L23.5256 18.082C23.6331 17.9746 23.6868 17.8457 23.6868 17.6953C23.6868 17.5449 23.6331 17.416 23.5256 17.3086L22.2688 16.0518L25.137 13.1836C25.3518 13.2266 25.5667 13.2588 25.7815 13.2803C25.9963 13.3018 26.2112 13.3125 26.426 13.3125ZM28.6174 32.0039C28.4026 32.0039 28.1985 31.9878 28.0051 31.9556C27.8118 31.9233 27.6184 31.875 27.425 31.8105L31.7434 27.4922C32.0657 28.3516 32.0334 29.2056 31.6467 30.0542C31.26 30.9028 30.637 31.4883 29.7776 31.8105C29.5842 31.875 29.3909 31.9233 29.1975 31.9556C29.0042 31.9878 28.8108 32.0039 28.6174 32.0039ZM22.3655 17.7275C22.0647 18.0713 21.9358 18.4795 21.9788 18.9521C22.0217 19.4248 22.2258 19.8223 22.5911 20.1445C22.9133 20.4023 23.2786 20.5312 23.6868 20.5312C24.095 20.5312 24.4602 20.4023 24.7825 20.1445L30.97 26.2998C30.9915 26.3428 31.0183 26.3804 31.0505 26.4126C31.0828 26.4448 31.1204 26.4824 31.1633 26.5254L26.4583 31.2305C26.4153 31.1875 26.3777 31.1499 26.3455 31.1177C26.3132 31.0854 26.2756 31.0586 26.2327 31.0371L20.0774 24.8496C20.3782 24.4844 20.5071 24.0654 20.4641 23.5928C20.4211 23.1201 20.217 22.7334 19.8518 22.4326C19.5295 22.1748 19.1589 22.0459 18.74 22.0459C18.321 22.0459 17.9504 22.1748 17.6282 22.4326L16.7581 21.5625L21.4954 16.8252L22.3655 17.7275ZM24.5891 12.1846L12.1174 24.6562C12.053 24.7207 12.0046 24.8013 11.9724 24.8979C11.9402 24.9946 11.9348 25.0859 11.9563 25.1719C12.343 26.6543 12.1443 28.0562 11.3601 29.3774C10.5759 30.6987 9.44263 31.542 7.96021 31.9072C6.47778 32.2939 5.0813 32.0952 3.77075 31.311C2.46021 30.5269 1.61157 29.3936 1.22485 27.9111C0.859619 26.4287 1.06372 25.0322 1.83716 23.7217C2.6106 22.4111 3.73853 21.5625 5.22095 21.1758C5.67212 21.0684 6.12866 21.0146 6.59058 21.0146C7.05249 21.0146 7.50903 21.0684 7.96021 21.1758C8.04614 21.1973 8.13745 21.1973 8.23413 21.1758C8.33081 21.1543 8.41138 21.1113 8.47583 21.0469L20.9797 8.54297C21.0442 8.47852 21.0872 8.40332 21.1086 8.31738C21.1301 8.23145 21.1301 8.13477 21.1086 8.02734C20.7434 6.56641 20.9421 5.18604 21.7048 3.88623C22.4675 2.58643 23.5901 1.74316 25.0725 1.35645C25.3303 1.29199 25.6042 1.24902 25.8943 1.22754C26.1843 1.20605 26.469 1.19531 26.7483 1.19531L23.8479 4.12793C23.7834 4.19238 23.7351 4.27295 23.7029 4.36963C23.6707 4.46631 23.676 4.56836 23.719 4.67578L24.8147 7.96289C24.8362 8.04883 24.8792 8.12402 24.9436 8.18848C25.0081 8.25293 25.0833 8.2959 25.1692 8.31738L28.4563 9.41309C28.5637 9.45605 28.6658 9.4668 28.7625 9.44531C28.8591 9.42383 28.9504 9.37012 29.0364 9.28418L31.9368 6.38379C31.9368 6.44824 31.9368 6.50195 31.9368 6.54492C31.9368 6.58789 31.9368 6.6416 31.9368 6.70605C31.9583 8.20996 31.4373 9.49902 30.3738 10.5732C29.3103 11.6475 28.0159 12.1953 26.4905 12.2168C26.2542 12.2168 26.0232 12.2007 25.7976 12.1685C25.572 12.1362 25.3411 12.0879 25.1047 12.0234C25.0188 12.002 24.9275 12.0073 24.8308 12.0396C24.7341 12.0718 24.6536 12.1201 24.5891 12.1846ZM28.4885 27.7822L27.7151 28.5557L22.2043 23.0449L22.9778 22.2715L28.4885 27.7822Z" fill="white"/>
</svg>
