<?xml version="1.0" encoding="UTF-8"?>
<svg id="Layer_2" data-name="Layer 2" xmlns="http://www.w3.org/2000/svg" viewBox="0 0 537.73 179.18">
  <defs>
    <style>
      .cls-1 {
        fill: #eda817;
      }

      .cls-1, .cls-2 {
        fill-rule: evenodd;
        stroke-width: 0px;
      }

      .cls-2 {
        fill: #fff;
      }
    </style>
  </defs>
  <g id="Layer_1-2" data-name="Layer 1">
    <polygon class="cls-2" points="126.86 19.4 99.2 120.48 83.13 120.48 63.57 47.06 43.73 120.48 27.66 120.48 0 19.4 15.93 19.4 35.62 92.82 55.46 19.4 71.25 19.4 91.23 92.82 110.93 19.4 126.86 19.4 126.86 19.4"/>
    <path class="cls-2" d="M134.23,19.69l15.93-1.3v24.76l-.29,9.27h.58c7.38-2.75,13.32-4.06,20.56-4.06,12.89,0,21.58,5.79,21.58,27.95v44.17h-15.93v-42.87c0-13.32-6.52-15.06-13.9-15.06-4.64,0-8.55,1.01-12.6,2.17v55.75h-15.93V19.69h0Z"/>
    <path class="cls-2" d="M206.49,49.38h15.93v71.1h-15.93V49.38h0ZM214.45,20.71h0c8.26,0,9.56,4.78,9.56,10.14s-1.74,10.28-9.56,10.28-9.41-4.93-9.41-10.28,1.45-10.14,9.41-10.14h0Z"/>
    <path class="cls-2" d="M235.88,49.38h10.86l2.17,5.79h1.01c4.2-3.62,10.86-6.81,19.55-6.81,1.01,0,2.17,0,3.33.15v15.64c-2.89-.43-5.94-.87-8.98-.87-4.35,0-7.82,1.01-12.02,2.9v54.31h-15.93V49.38h0Z"/>
    <polygon class="cls-2" points="279.61 120.48 279.61 19.69 295.54 18.39 295.54 120.48 279.61 120.48 279.61 120.48"/>
    <path class="cls-2" d="M423.84,85.29c0-13.46-2.18-24.47-14.92-24.47s-16.08,10.57-16.08,24.47c0,12.89,2.61,24.04,15.35,24.04s15.64-10.57,15.64-24.04h0ZM408.78,48.36h0c22.59,0,31.29,13.32,31.29,36.93,0,22.16-8.11,36.64-31.57,36.64s-31.72-14.49-31.72-36.64c0-23.6,9.41-36.93,32-36.93h0Z"/>
    <path class="cls-2" d="M495.27,85.29c0-13.46-2.17-24.47-14.91-24.47s-16.08,10.57-16.08,24.47c0,12.89,2.61,24.04,15.35,24.04s15.64-10.57,15.64-24.04h0ZM480.21,48.36h0c22.59,0,31.28,13.32,31.28,36.93,0,22.16-8.11,36.64-31.57,36.64s-31.72-14.49-31.72-36.64c0-23.6,9.41-36.93,32.01-36.93h0Z"/>
    <polygon class="cls-2" points="521.8 120.48 521.8 19.69 537.73 18.39 537.73 120.48 521.8 120.48 521.8 120.48"/>
    <path class="cls-2" d="M324.51,107.31c4.49.14,6.95.29,11.59.29,9.84,0,16.36-5.21,16.36-25.92,0-14.19-5.79-17.95-16.22-17.95-4.06,0-7.82.72-11.73,2.03v41.56h0ZM308.58,49.38h12.02l1.3,5.21c4.78-2.61,13.61-6.23,21.58-6.23,14.48,0,25.05,10.57,25.05,35.91s-11.15,37.22-29.68,37.22c-6.82,0-14.34-1.45-14.34-1.45v32.58l-15.93,1.74V49.38h0Z"/>
    <path class="cls-1" d="M387.44,5.69c-11.91-13.8-49.71-1.67-91.9,27.52v7.36c37.15-26.41,69.9-38.59,79.28-27.72,11.71,13.57-17.42,57.95-65.07,99.08-47.66,41.13-95.8,63.43-107.51,49.86-6.08-7.05-1.12-22.41,11.71-41.3h-7.46c-15.89,23.69-21.84,43.6-13.69,53.05,14.87,17.23,70.5-6.34,124.23-52.71,53.73-46.37,85.28-97.9,70.41-115.13h0Z"/>
  </g>
</svg>